<svg xmlns="http://www.w3.org/2000/svg" xmlns:xlink="http://www.w3.org/1999/xlink" width="500" zoomAndPan="magnify" viewBox="0 0 375 374.999991" height="500" preserveAspectRatio="xMidYMid meet" version="1.0"><defs><g/><clipPath id="e45c84f451"><path d="M 125.542969 172.144531 L 255.4375 172.144531 L 255.4375 206.558594 L 125.542969 206.558594 Z M 125.542969 172.144531 " clip-rule="nonzero"/></clipPath><clipPath id="150026afeb"><path d="M 194 92.039062 L 200 92.039062 L 200 107 L 194 107 Z M 194 92.039062 " clip-rule="nonzero"/></clipPath><clipPath id="49f8a456f8"><path d="M 180 92.039062 L 186 92.039062 L 186 106 L 180 106 Z M 180 92.039062 " clip-rule="nonzero"/></clipPath></defs><rect x="-37.5" width="450" fill="#ffffff" y="-37.499999" height="449.999989" fill-opacity="1"/><rect x="-37.5" width="450" fill="#fdfcfb" y="-37.499999" height="449.999989" fill-opacity="1"/><rect x="-37.5" width="450" fill="#f5f5dc" y="-37.499999" height="449.999989" fill-opacity="1"/><g clip-path="url(#e45c84f451)"><path fill="#f08d1e" d="M 196.457031 199.410156 L 195.535156 200.769531 C 194.390625 202.449219 192.503906 203.449219 190.492188 203.449219 C 188.476562 203.449219 186.59375 202.449219 185.449219 200.769531 L 184.523438 199.410156 L 131.671875 199.410156 L 134.632812 195.371094 L 138.070312 195.441406 C 138.5 195.449219 138.917969 195.453125 139.332031 195.453125 C 148.164062 195.453125 154.207031 193.636719 160.046875 191.882812 C 163.660156 190.796875 167.074219 189.769531 171.023438 189.230469 C 171.949219 189.101562 172.882812 189.039062 173.796875 189.039062 C 182.519531 189.039062 188.179688 194.859375 188.234375 194.914062 L 190.492188 197.28125 L 192.75 194.914062 C 192.804688 194.859375 198.460938 189.039062 207.183594 189.039062 C 208.101562 189.039062 209.035156 189.101562 209.957031 189.230469 C 213.90625 189.769531 217.320312 190.796875 220.933594 191.882812 C 226.777344 193.636719 232.820312 195.453125 241.648438 195.453125 C 242.0625 195.453125 242.484375 195.449219 242.910156 195.441406 L 246.351562 195.371094 L 249.308594 199.410156 Z M 247.773438 192.054688 L 228.105469 172.167969 L 225.707031 172.167969 L 242.851562 192.332031 C 228.230469 192.617188 221.335938 187.648438 210.378906 186.152344 C 198.257812 184.492188 190.492188 192.78125 190.492188 192.78125 C 190.492188 192.78125 182.722656 184.492188 170.601562 186.152344 C 159.644531 187.648438 152.75 192.617188 138.132812 192.332031 L 155.273438 172.167969 L 152.878906 172.167969 L 133.210938 192.054688 L 125.542969 202.515625 L 182.878906 202.515625 C 184.539062 204.953125 187.324219 206.558594 190.492188 206.558594 C 193.660156 206.558594 196.445312 204.953125 198.101562 202.515625 L 255.4375 202.515625 L 247.773438 192.054688 " fill-opacity="1" fill-rule="nonzero"/></g><path fill="#f08d1e" d="M 136.925781 197.832031 C 136.582031 197.832031 136.304688 197.550781 136.304688 197.207031 C 136.304688 196.867188 136.582031 196.585938 136.925781 196.585938 C 148.753906 196.585938 157.457031 194.410156 162.972656 192.773438 L 163.15625 192.71875 C 167.445312 191.449219 171.5 190.246094 176.058594 191.199219 C 182.082031 192.457031 186.546875 196.1875 186.734375 196.34375 C 187 196.566406 187.03125 196.957031 186.808594 197.222656 C 186.589844 197.480469 186.195312 197.515625 185.933594 197.296875 C 185.890625 197.257812 181.507812 193.609375 175.804688 192.417969 C 171.550781 191.527344 167.644531 192.683594 163.511719 193.910156 L 163.328125 193.964844 C 157.734375 195.625 148.914062 197.832031 136.925781 197.832031 " fill-opacity="1" fill-rule="nonzero"/><path fill="#f08d1e" d="M 154.25 198.453125 C 153.90625 198.453125 153.628906 198.171875 153.628906 197.832031 C 153.628906 197.488281 153.90625 197.207031 154.25 197.207031 C 154.269531 197.207031 156.730469 197.15625 164.308594 194.839844 C 167.695312 193.804688 171.320312 192.859375 175.132812 193.65625 C 179.210938 194.507812 182.285156 196.609375 182.414062 196.695312 C 182.699219 196.890625 182.769531 197.277344 182.574219 197.5625 C 182.378906 197.84375 181.992188 197.914062 181.710938 197.71875 C 181.679688 197.699219 178.703125 195.671875 174.878906 194.875 C 171.351562 194.136719 168.035156 195 164.671875 196.027344 C 156.839844 198.425781 154.351562 198.453125 154.25 198.453125 " fill-opacity="1" fill-rule="nonzero"/><path fill="#f08d1e" d="M 167.765625 197.832031 C 167.503906 197.832031 167.257812 197.660156 167.175781 197.394531 C 167.070312 197.066406 167.253906 196.71875 167.582031 196.617188 C 172.796875 194.984375 176.417969 196.574219 176.570312 196.640625 C 176.882812 196.785156 177.019531 197.152344 176.878906 197.464844 C 176.738281 197.777344 176.371094 197.914062 176.058594 197.777344 C 176.023438 197.761719 172.691406 196.320312 167.953125 197.800781 C 167.890625 197.820312 167.828125 197.832031 167.765625 197.832031 " fill-opacity="1" fill-rule="nonzero"/><path fill="#f08d1e" d="M 244.054688 197.832031 C 232.066406 197.832031 223.246094 195.625 217.652344 193.964844 L 217.472656 193.910156 C 213.335938 192.683594 209.433594 191.527344 205.175781 192.417969 C 199.460938 193.609375 195.089844 197.257812 195.046875 197.296875 C 194.785156 197.519531 194.394531 197.484375 194.171875 197.222656 C 193.949219 196.957031 193.984375 196.566406 194.246094 196.34375 C 194.433594 196.1875 198.902344 192.457031 204.921875 191.199219 C 209.480469 190.246094 213.535156 191.449219 217.824219 192.71875 L 218.007812 192.773438 C 223.527344 194.410156 232.230469 196.585938 244.054688 196.585938 C 244.398438 196.585938 244.679688 196.867188 244.679688 197.207031 C 244.679688 197.550781 244.398438 197.832031 244.054688 197.832031 " fill-opacity="1" fill-rule="nonzero"/><path fill="#f08d1e" d="M 226.730469 198.453125 C 226.628906 198.453125 224.140625 198.425781 216.3125 196.027344 C 212.945312 195 209.628906 194.136719 206.105469 194.875 C 202.28125 195.671875 199.300781 197.699219 199.273438 197.71875 C 198.992188 197.914062 198.601562 197.84375 198.40625 197.5625 C 198.214844 197.277344 198.285156 196.890625 198.566406 196.695312 C 198.695312 196.609375 201.773438 194.507812 205.851562 193.65625 C 209.660156 192.859375 213.289062 193.804688 216.675781 194.839844 C 224.25 197.15625 226.710938 197.207031 226.734375 197.207031 C 227.078125 197.210938 227.351562 197.492188 227.351562 197.832031 C 227.351562 198.175781 227.074219 198.453125 226.730469 198.453125 " fill-opacity="1" fill-rule="nonzero"/><path fill="#f08d1e" d="M 213.214844 197.832031 C 213.152344 197.832031 213.089844 197.820312 213.027344 197.800781 C 208.261719 196.308594 204.957031 197.761719 204.925781 197.773438 C 204.613281 197.917969 204.242188 197.777344 204.101562 197.464844 C 203.960938 197.152344 204.101562 196.785156 204.414062 196.640625 C 204.566406 196.574219 208.183594 194.984375 213.398438 196.617188 C 213.726562 196.71875 213.910156 197.066406 213.808594 197.394531 C 213.722656 197.660156 213.480469 197.832031 213.214844 197.832031 " fill-opacity="1" fill-rule="nonzero"/><path fill="#4c764a" d="M 181.292969 125.9375 C 180.808594 127.996094 180.613281 130.417969 181.714844 132.476562 C 182.640625 134.210938 184.730469 135.273438 185.457031 137.175781 C 185.457031 137.175781 185.46875 134.375 183.085938 131.601562 C 183.085938 131.601562 185.304688 133.554688 185.785156 136.613281 C 186.132812 135.765625 186.34375 134.144531 185.597656 131.40625 C 185.269531 130.207031 184.414062 129.335938 183.523438 128.5625 C 182.675781 127.820312 181.691406 127.019531 181.292969 125.9375 " fill-opacity="1" fill-rule="nonzero"/><path fill="#4c764a" d="M 171.980469 131.988281 C 171.988281 134.570312 172.445312 137.503906 174.34375 139.640625 C 175.933594 141.433594 178.722656 142.101562 180.125 144.160156 C 180.125 144.160156 179.339844 140.828125 175.722656 138.207031 C 175.722656 138.207031 178.917969 139.898438 180.355469 143.394531 C 180.527344 142.289062 180.316406 140.304688 178.648438 137.261719 C 177.921875 135.929688 176.65625 135.140625 175.378906 134.472656 C 174.15625 133.832031 172.761719 133.160156 171.980469 131.988281 " fill-opacity="1" fill-rule="nonzero"/><path fill="#4c764a" d="M 210.804688 144.566406 C 212.472656 144.199219 213.707031 142.871094 214.8125 141.472656 C 215.867188 140.140625 217.011719 138.589844 218.519531 138.078125 C 215.691406 136.925781 212.347656 136.21875 209.460938 137.777344 C 207.03125 139.085938 205.488281 142.488281 202.828125 143.429688 C 202.828125 143.429688 206.699219 143.882812 210.625 140.253906 C 210.625 140.253906 207.839844 143.734375 203.597656 144.074219 C 204.753906 144.796875 206.984375 145.410156 210.804688 144.566406 " fill-opacity="1" fill-rule="nonzero"/><path fill="#4c764a" d="M 211.148438 149.496094 C 208.425781 149.34375 205.601562 151.476562 202.832031 150.878906 C 202.832031 150.878906 206.085938 153.335938 211.125 152.265625 C 211.125 152.265625 207.164062 153.808594 203.242188 151.847656 C 203.964844 153.09375 205.6875 154.8125 209.445312 156.109375 C 211.089844 156.675781 212.753906 156.179688 214.332031 155.554688 C 215.839844 154.957031 217.519531 154.21875 219.082031 154.574219 C 217.054688 152.074219 214.382812 149.679688 211.148438 149.496094 " fill-opacity="1" fill-rule="nonzero"/><path fill="#4c764a" d="M 198.679688 139.058594 C 199.980469 138.964844 202.113281 138.125 204.832031 135.089844 C 206.023438 133.765625 206.386719 131.894531 206.609375 130.042969 C 206.824219 128.277344 207.007812 126.273438 207.996094 124.921875 C 205.113281 125.667969 202.023438 127.101562 200.417969 130.175781 C 199.0625 132.757812 199.457031 136.570312 197.730469 138.980469 C 197.730469 138.980469 201.132812 137.011719 202.578125 131.558594 C 202.578125 131.558594 201.996094 136.191406 198.679688 139.058594 " fill-opacity="1" fill-rule="nonzero"/><path fill="#4c764a" d="M 192.519531 118.464844 C 190.628906 121.109375 188.9375 124.441406 189.304688 128.015625 C 189.617188 131.019531 191.972656 133.75 191.894531 136.886719 C 191.894531 136.886719 193.542969 132.902344 191.769531 127.570312 C 191.769531 127.570312 193.789062 131.644531 192.6875 136.273438 C 193.675781 135.269531 194.917969 133.089844 195.457031 128.753906 C 195.691406 126.855469 194.976562 125.121094 194.164062 123.496094 C 193.386719 121.949219 192.457031 120.234375 192.519531 118.464844 " fill-opacity="1" fill-rule="nonzero"/><path fill="#4c764a" d="M 199.152344 121.058594 C 199.152344 121.058594 201.417969 118.527344 201.355469 113.734375 C 201.355469 113.734375 201.921875 117.628906 199.921875 120.859375 C 200.9375 120.421875 202.445312 119.15625 203.929688 115.957031 C 204.582031 114.554688 204.457031 112.949219 204.222656 111.394531 C 204 109.910156 203.699219 108.246094 204.183594 106.882812 C 202.058594 108.28125 199.921875 110.296875 199.328125 113.21875 C 198.824219 115.671875 199.984375 118.636719 199.152344 121.058594 " fill-opacity="1" fill-rule="nonzero"/><path fill="#4c764a" d="M 190.996094 106.070312 C 190.734375 104.726562 190.394531 103.222656 190.78125 101.957031 C 188.90625 103.339844 187.042969 105.285156 186.617188 107.976562 C 186.261719 110.242188 187.433594 112.886719 186.773438 115.140625 C 186.773438 115.140625 188.734375 112.714844 188.484375 108.347656 C 188.484375 108.347656 189.152344 111.871094 187.46875 114.917969 C 188.375 114.46875 189.691406 113.238281 190.917969 110.246094 C 191.453125 108.933594 191.273438 107.476562 190.996094 106.070312 " fill-opacity="1" fill-rule="nonzero"/><g clip-path="url(#150026afeb)"><path fill="#4c764a" d="M 199.070312 96.546875 C 198.785156 95.074219 198.410156 93.425781 198.832031 92.039062 C 196.777344 93.554688 194.734375 95.6875 194.269531 98.640625 C 193.878906 101.125 195.167969 104.023438 194.441406 106.488281 C 194.441406 106.488281 196.589844 103.832031 196.316406 99.042969 C 196.316406 99.042969 197.050781 102.90625 195.203125 106.246094 C 196.195312 105.753906 197.640625 104.40625 198.984375 101.125 C 199.570312 99.6875 199.375 98.089844 199.070312 96.546875 " fill-opacity="1" fill-rule="nonzero"/></g><path fill="#4c764a" d="M 221.570312 125.636719 C 219.105469 125.183594 216.277344 125.183594 214.140625 126.96875 C 212.34375 128.46875 211.558594 131.53125 209.519531 132.769531 C 209.519531 132.769531 212.746094 132.46875 215.433594 128.800781 C 215.433594 128.800781 213.652344 132.148438 210.238281 133.167969 C 211.285156 133.5625 213.191406 133.675781 216.1875 132.316406 C 217.496094 131.722656 218.316406 130.417969 219.019531 129.074219 C 219.695312 127.796875 220.410156 126.324219 221.570312 125.636719 " fill-opacity="1" fill-rule="nonzero"/><path fill="#4c764a" d="M 212.777344 112.382812 C 212.777344 112.382812 212.136719 116.234375 209.265625 118.5 C 210.359375 118.472656 212.171875 117.855469 214.550781 115.429688 C 215.589844 114.367188 215.957031 112.816406 216.203125 111.277344 C 216.441406 109.808594 216.660156 108.140625 217.53125 107.050781 C 215.09375 107.558594 212.457031 108.632812 211.007812 111.136719 C 209.792969 113.242188 209.996094 116.445312 208.472656 118.394531 C 208.472656 118.394531 211.386719 116.882812 212.777344 112.382812 " fill-opacity="1" fill-rule="nonzero"/><path fill="#4c764a" d="M 209.097656 101.261719 C 209.097656 101.261719 208.574219 104.421875 206.214844 106.28125 C 207.113281 106.261719 208.601562 105.753906 210.554688 103.761719 C 211.410156 102.886719 211.710938 101.617188 211.914062 100.351562 C 212.109375 99.144531 212.289062 97.777344 213.003906 96.878906 C 211 97.300781 208.835938 98.183594 207.648438 100.238281 C 206.648438 101.96875 206.816406 104.597656 205.566406 106.199219 C 205.566406 106.199219 207.957031 104.957031 209.097656 101.261719 " fill-opacity="1" fill-rule="nonzero"/><path fill="#4c764a" d="M 221.09375 142.125 C 219.09375 143.277344 217.875 146.148438 215.679688 147 C 215.679688 147 218.914062 147.28125 222.109375 144.160156 C 222.109375 144.160156 219.859375 147.128906 216.332031 147.519531 C 217.3125 148.09375 219.183594 148.550781 222.34375 147.75 C 223.730469 147.402344 224.730469 146.265625 225.621094 145.074219 C 226.472656 143.9375 227.394531 142.617188 228.640625 142.152344 C 226.265625 141.261719 223.464844 140.753906 221.09375 142.125 " fill-opacity="1" fill-rule="nonzero"/><path fill="#4c764a" d="M 225.789062 128.519531 C 223.789062 129.671875 222.570312 132.546875 220.375 133.398438 C 220.375 133.398438 223.609375 133.679688 226.804688 130.558594 C 226.804688 130.558594 224.554688 133.527344 221.027344 133.917969 C 222.007812 134.492188 223.878906 134.945312 227.039062 134.148438 C 228.425781 133.796875 229.425781 132.664062 230.316406 131.472656 C 231.167969 130.335938 232.089844 129.015625 233.335938 128.546875 C 230.960938 127.660156 228.160156 127.152344 225.789062 128.519531 " fill-opacity="1" fill-rule="nonzero"/><path fill="#4c764a" d="M 222.199219 118.847656 C 222.199219 118.847656 219.949219 121.816406 216.421875 122.207031 C 217.398438 122.78125 219.269531 123.238281 222.433594 122.4375 C 223.816406 122.089844 224.820312 120.953125 225.710938 119.761719 C 226.5625 118.625 227.484375 117.304688 228.730469 116.839844 C 226.351562 115.949219 223.554688 115.441406 221.179688 116.8125 C 219.183594 117.960938 217.964844 120.835938 215.769531 121.6875 C 215.769531 121.6875 219.003906 121.972656 222.199219 118.847656 " fill-opacity="1" fill-rule="nonzero"/><path fill="#4c764a" d="M 174.910156 145.664062 C 172.117188 145.265625 169.933594 142.234375 167.292969 141.425781 C 164.15625 140.46875 161.015625 141.820312 158.46875 143.503906 C 160.050781 143.710938 161.476562 145.003906 162.773438 146.105469 C 164.132812 147.257812 165.601562 148.316406 167.3125 148.347656 C 171.222656 148.425781 173.289062 147.386719 174.28125 146.449219 C 170.054688 146.949219 166.640625 144.085938 166.640625 144.085938 C 171.199219 146.871094 174.910156 145.664062 174.910156 145.664062 " fill-opacity="1" fill-rule="nonzero"/><path fill="#4c764a" d="M 176.785156 151.539062 C 174.511719 152.125 172.097656 150.457031 169.851562 150.675781 C 167.175781 150.9375 165.042969 153.011719 163.453125 155.152344 C 164.734375 154.804688 166.148438 155.359375 167.417969 155.804688 C 168.75 156.269531 170.144531 156.621094 171.484375 156.097656 C 174.554688 154.894531 175.925781 153.410156 176.480469 152.355469 C 173.296875 154.113281 169.964844 152.96875 169.964844 152.96875 C 174.171875 153.683594 176.785156 151.539062 176.785156 151.539062 " fill-opacity="1" fill-rule="nonzero"/><path fill="#4c764a" d="M 170.304688 135.015625 C 168.871094 133.082031 169.085938 130.050781 167.941406 127.984375 C 166.578125 125.523438 164.082031 124.359375 161.769531 123.742188 C 162.589844 124.828125 162.789062 126.425781 163.003906 127.832031 C 163.230469 129.308594 163.570312 130.800781 164.550781 131.867188 C 166.792969 134.300781 168.511719 134.988281 169.550781 135.070312 C 166.839844 132.761719 166.253906 129.070312 166.253906 129.070312 C 167.546875 133.421875 170.304688 135.015625 170.304688 135.015625 " fill-opacity="1" fill-rule="nonzero"/><path fill="#4c764a" d="M 177.582031 125.949219 C 176.332031 124.066406 176.667969 121.25 175.691406 119.257812 C 174.535156 116.890625 172.25 115.664062 170.117188 114.957031 C 170.835938 116.011719 170.949219 117.515625 171.085938 118.839844 C 171.230469 120.230469 171.480469 121.636719 172.347656 122.6875 C 174.335938 125.085938 175.910156 125.824219 176.875 125.960938 C 174.445312 123.652344 174.066406 120.175781 174.066406 120.175781 C 175.078125 124.308594 177.582031 125.949219 177.582031 125.949219 " fill-opacity="1" fill-rule="nonzero"/><path fill="#4c764a" d="M 160.898438 107.820312 C 163.015625 109.617188 164.527344 109.992188 165.410156 109.941406 C 162.90625 108.308594 162.066406 105.253906 162.066406 105.253906 C 163.566406 108.78125 166.039062 109.808594 166.039062 109.808594 C 164.648438 108.339844 164.542969 105.75 163.382812 104.132812 C 162.003906 102.214844 159.792969 101.523438 157.789062 101.273438 C 158.582031 102.09375 158.898438 103.421875 159.214844 104.589844 C 159.542969 105.8125 159.96875 107.035156 160.898438 107.820312 " fill-opacity="1" fill-rule="nonzero"/><path fill="#4c764a" d="M 148.070312 115.78125 C 148.613281 116.910156 149.253906 118.011719 150.300781 118.574219 C 152.695312 119.859375 154.234375 119.882812 155.085938 119.628906 C 152.351562 118.59375 150.96875 115.785156 150.96875 115.785156 C 153.078125 118.910156 155.671875 119.355469 155.671875 119.355469 C 154.050781 118.226562 153.472656 115.703125 152.046875 114.382812 C 150.351562 112.808594 148.070312 112.632812 146.074219 112.847656 C 146.996094 113.472656 147.546875 114.707031 148.070312 115.78125 " fill-opacity="1" fill-rule="nonzero"/><path fill="#4c764a" d="M 172.171875 107.820312 C 170.632812 104.707031 171.398438 101.34375 171.398438 101.34375 C 171.011719 105.566406 172.835938 108.097656 172.835938 108.097656 C 172.269531 105.851562 173.5 103.386719 173.226562 101.152344 C 172.902344 98.492188 171.15625 96.4375 169.378906 94.925781 C 169.710938 96.191406 169.332031 97.621094 169.03125 98.902344 C 168.714844 100.246094 168.492188 101.648438 168.972656 102.96875 C 170.0625 105.988281 171.304688 107.304688 172.171875 107.820312 " fill-opacity="1" fill-rule="nonzero"/><g clip-path="url(#49f8a456f8)"><path fill="#4c764a" d="M 183.046875 105.84375 C 183.101562 103.523438 184.9375 101.59375 185.273438 99.386719 C 185.667969 96.757812 184.539062 94.230469 183.234375 92.203125 C 183.214844 93.515625 182.46875 94.746094 181.839844 95.859375 C 181.179688 97.03125 180.589844 98.285156 180.695312 99.695312 C 180.941406 102.921875 181.785156 104.582031 182.480469 105.359375 C 181.828125 101.898438 183.464844 98.960938 183.464844 98.960938 C 181.964844 102.839844 183.046875 105.84375 183.046875 105.84375 " fill-opacity="1" fill-rule="nonzero"/></g><path fill="#4c764a" d="M 182.871094 113.730469 C 182.035156 110.847656 179.738281 108.953125 177.507812 107.667969 C 178.101562 109 177.9375 110.679688 177.835938 112.171875 C 177.730469 113.734375 177.738281 115.34375 178.503906 116.707031 C 180.246094 119.820312 181.855469 121.007812 182.902344 121.386719 C 180.644531 118.269531 180.890625 114.355469 180.890625 114.355469 C 181.222656 119.140625 183.6875 121.546875 183.6875 121.546875 C 182.65625 119.175781 183.574219 116.15625 182.871094 113.730469 " fill-opacity="1" fill-rule="nonzero"/><path fill="#4c764a" d="M 159.40625 132.40625 C 156.960938 131.078125 154.191406 131.632812 151.863281 132.5625 C 153.132812 133.007812 154.125 134.308594 155.039062 135.433594 C 155.992188 136.609375 157.054688 137.726562 158.457031 138.050781 C 161.660156 138.796875 163.503906 138.308594 164.453125 137.71875 C 160.90625 137.386719 158.5 134.460938 158.5 134.460938 C 161.859375 137.523438 165.078125 137.1875 165.078125 137.1875 C 162.835938 136.371094 161.464844 133.523438 159.40625 132.40625 " fill-opacity="1" fill-rule="nonzero"/><path fill="#4c764a" d="M 161.078125 119.386719 C 163.890625 121.300781 165.785156 121.550781 166.863281 121.359375 C 163.605469 119.703125 162.21875 116.054688 162.21875 116.054688 C 164.46875 120.191406 167.621094 121.101562 167.621094 121.101562 C 165.746094 119.492188 165.316406 116.308594 163.707031 114.484375 C 161.796875 112.316406 159 111.777344 156.507812 111.757812 C 157.578125 112.65625 158.121094 114.25 158.640625 115.644531 C 159.1875 117.105469 159.851562 118.550781 161.078125 119.386719 " fill-opacity="1" fill-rule="nonzero"/><path fill="#4c764a" d="M 154.324219 149.667969 C 158.070312 152.097656 161.1875 151.183594 161.1875 151.183594 C 158.867188 150.78125 157.105469 148.207031 154.921875 147.46875 C 152.324219 146.59375 149.679688 147.640625 147.523438 148.980469 C 148.839844 149.191406 150.003906 150.304688 151.0625 151.253906 C 152.171875 152.246094 153.375 153.164062 154.800781 153.234375 C 158.058594 153.394531 159.804688 152.578125 160.648438 151.824219 C 157.113281 152.136719 154.324219 149.667969 154.324219 149.667969 " fill-opacity="1" fill-rule="nonzero"/><path fill="#4c764a" d="M 155.777344 140.65625 C 152.242188 140.96875 149.453125 138.5 149.453125 138.5 C 153.203125 140.933594 156.320312 140.019531 156.320312 140.019531 C 153.996094 139.617188 152.234375 137.039062 150.050781 136.300781 C 147.453125 135.425781 144.808594 136.476562 142.652344 137.816406 C 143.96875 138.027344 145.132812 139.140625 146.191406 140.085938 C 147.300781 141.082031 148.503906 141.996094 149.929688 142.066406 C 153.1875 142.226562 154.933594 141.414062 155.777344 140.65625 " fill-opacity="1" fill-rule="nonzero"/><path fill="#4c764a" d="M 150.96875 129.363281 C 154.226562 129.523438 155.96875 128.710938 156.816406 127.953125 C 153.28125 128.265625 150.492188 125.796875 150.492188 125.796875 C 154.238281 128.230469 157.355469 127.316406 157.355469 127.316406 C 155.035156 126.914062 153.273438 124.335938 151.089844 123.601562 C 148.492188 122.722656 145.847656 123.773438 143.691406 125.113281 C 145.003906 125.324219 146.167969 126.4375 147.226562 127.382812 C 148.335938 128.378906 149.542969 129.292969 150.96875 129.363281 " fill-opacity="1" fill-rule="nonzero"/><path fill="#64615f" d="M 190.492188 165.113281 C 178.554688 156.488281 157.1875 161.714844 157.1875 161.714844 C 181.355469 167.332031 190.492188 188.367188 190.492188 188.367188 C 190.492188 188.367188 199.628906 167.332031 223.792969 161.714844 C 223.792969 161.714844 202.425781 156.488281 190.492188 165.113281 " fill-opacity="1" fill-rule="nonzero"/><path fill="#64615f" d="M 182.019531 149.796875 C 182.019531 155.316406 185.8125 159.789062 190.492188 159.789062 C 195.171875 159.789062 198.964844 155.316406 198.964844 149.796875 C 198.964844 144.277344 195.171875 139.800781 190.492188 139.800781 C 185.8125 139.800781 182.019531 144.277344 182.019531 149.796875 " fill-opacity="1" fill-rule="nonzero"/><g fill="#4c764a" fill-opacity="1"><g transform="translate(101.591781, 234.48042)"><g><path d="M 11.734375 -16.984375 L 14 -20.625 L 14.71875 -20.84375 C 14.71875 -20.84375 14.910156 -20.84375 15.296875 -20.84375 C 15.679688 -20.851562 16.191406 -20.832031 16.828125 -20.78125 C 17.460938 -20.738281 18.164062 -20.625 18.9375 -20.4375 C 18.957031 -20.4375 18.96875 -20.242188 18.96875 -19.859375 C 18.976562 -19.484375 18.976562 -18.957031 18.96875 -18.28125 C 18.96875 -17.613281 18.957031 -16.84375 18.9375 -15.96875 C 18.914062 -15.101562 18.894531 -14.171875 18.875 -13.171875 C 18.863281 -12.179688 18.84375 -11.164062 18.8125 -10.125 C 18.789062 -9.082031 18.769531 -8.0625 18.75 -7.0625 C 18.726562 -6.070312 18.703125 -5.140625 18.671875 -4.265625 C 18.648438 -3.398438 18.628906 -2.632812 18.609375 -1.96875 C 18.585938 -1.3125 18.570312 -0.789062 18.5625 -0.40625 C 18.550781 -0.03125 18.546875 0.15625 18.546875 0.15625 L 14.578125 0.4375 L 14.46875 -7.03125 L 11.28125 -4.640625 L 8.375 -8.671875 C 8.375 -8.671875 8.375 -8.539062 8.375 -8.28125 C 8.382812 -8.03125 8.394531 -7.703125 8.40625 -7.296875 C 8.414062 -6.890625 8.425781 -6.457031 8.4375 -6 C 8.457031 -5.539062 8.472656 -5.097656 8.484375 -4.671875 C 8.492188 -4.253906 8.503906 -3.898438 8.515625 -3.609375 C 8.523438 -3.316406 8.53125 -3.144531 8.53125 -3.09375 C 8.53125 -3.03125 8.523438 -2.875 8.515625 -2.625 C 8.515625 -2.382812 8.507812 -2.097656 8.5 -1.765625 C 8.5 -1.429688 8.492188 -1.109375 8.484375 -0.796875 C 8.472656 -0.484375 8.460938 -0.222656 8.453125 -0.015625 C 8.453125 0.191406 8.453125 0.296875 8.453125 0.296875 L 8 0.453125 L 3.328125 0.140625 L 2.84375 -0.515625 C 2.78125 -1.296875 2.734375 -2.191406 2.703125 -3.203125 C 2.671875 -4.210938 2.644531 -5.289062 2.625 -6.4375 C 2.601562 -7.582031 2.59375 -8.742188 2.59375 -9.921875 C 2.59375 -11.109375 2.597656 -12.269531 2.609375 -13.40625 C 2.617188 -14.539062 2.628906 -15.601562 2.640625 -16.59375 C 2.660156 -17.59375 2.675781 -18.46875 2.6875 -19.21875 C 2.707031 -19.976562 2.71875 -20.570312 2.71875 -21 C 2.726562 -21.425781 2.734375 -21.640625 2.734375 -21.640625 L 3.46875 -21.859375 C 3.46875 -21.859375 3.582031 -21.867188 3.8125 -21.890625 C 4.050781 -21.910156 4.359375 -21.925781 4.734375 -21.9375 C 5.117188 -21.945312 5.535156 -21.941406 5.984375 -21.921875 C 6.441406 -21.898438 6.890625 -21.84375 7.328125 -21.75 C 7.773438 -21.664062 8.171875 -21.53125 8.515625 -21.34375 Z M 11.734375 -16.984375 "/></g></g></g><g fill="#4c764a" fill-opacity="1"><g transform="translate(122.433048, 234.48042)"><g><path d="M 2.4375 -21.328125 C 3.15625 -21.492188 3.941406 -21.609375 4.796875 -21.671875 C 5.660156 -21.734375 6.53125 -21.757812 7.40625 -21.75 C 8.28125 -21.738281 9.109375 -21.703125 9.890625 -21.640625 C 10.679688 -21.585938 11.375 -21.53125 11.96875 -21.46875 C 12.570312 -21.414062 13.007812 -21.378906 13.28125 -21.359375 C 13.5625 -18.953125 13.851562 -16.597656 14.15625 -14.296875 C 14.46875 -12.003906 14.769531 -9.710938 15.0625 -7.421875 C 15.363281 -5.128906 15.628906 -2.773438 15.859375 -0.359375 C 15.515625 -0.359375 15.09375 -0.351562 14.59375 -0.34375 C 14.101562 -0.332031 13.601562 -0.320312 13.09375 -0.3125 C 12.582031 -0.3125 12.128906 -0.316406 11.734375 -0.328125 C 11.679688 -0.515625 11.640625 -0.65625 11.609375 -0.75 C 11.585938 -0.851562 11.5625 -0.960938 11.53125 -1.078125 C 11.507812 -1.191406 11.476562 -1.363281 11.4375 -1.59375 C 11.40625 -1.820312 11.359375 -2.15625 11.296875 -2.59375 C 11.234375 -3.039062 11.144531 -3.644531 11.03125 -4.40625 L 8.421875 -4.578125 L 8.203125 -0.125 L 1.265625 -0.46875 L 0.78125 -1.03125 C 0.863281 -2.875 0.960938 -4.648438 1.078125 -6.359375 C 1.203125 -8.078125 1.335938 -9.753906 1.484375 -11.390625 C 1.628906 -13.035156 1.78125 -14.675781 1.9375 -16.3125 C 2.09375 -17.945312 2.257812 -19.617188 2.4375 -21.328125 Z M 7.609375 -8.265625 L 11.171875 -8.0625 L 10.875 -12.703125 C 10.007812 -12.753906 9.34375 -12.773438 8.875 -12.765625 C 8.414062 -12.753906 8.09375 -12.726562 7.90625 -12.6875 C 7.71875 -12.644531 7.609375 -12.601562 7.578125 -12.5625 C 7.546875 -12.519531 7.53125 -12.5 7.53125 -12.5 Z M 7.609375 -8.265625 "/></g></g></g><g fill="#4c764a" fill-opacity="1"><g transform="translate(139.120487, 234.48042)"><g><path d="M 17.5 -0.359375 L 2.5 -0.65625 C 2.445312 -0.738281 2.40625 -0.925781 2.375 -1.21875 C 2.351562 -1.507812 2.332031 -1.84375 2.3125 -2.21875 C 2.289062 -2.59375 2.273438 -2.957031 2.265625 -3.3125 C 2.265625 -3.675781 2.257812 -3.972656 2.25 -4.203125 C 2.25 -4.441406 2.25 -4.5625 2.25 -4.5625 C 2.25 -4.5625 2.269531 -4.601562 2.3125 -4.6875 C 2.363281 -4.769531 2.414062 -4.851562 2.46875 -4.9375 C 2.53125 -5.03125 2.566406 -5.082031 2.578125 -5.09375 C 2.578125 -5.09375 2.722656 -5.070312 3.015625 -5.03125 C 3.316406 -5 3.695312 -4.945312 4.15625 -4.875 C 4.625 -4.8125 5.125 -4.742188 5.65625 -4.671875 C 6.195312 -4.609375 6.707031 -4.539062 7.1875 -4.46875 C 7.675781 -4.40625 8.082031 -4.351562 8.40625 -4.3125 C 8.738281 -4.269531 8.929688 -4.25 8.984375 -4.25 C 8.984375 -4.25 9.003906 -4.363281 9.046875 -4.59375 C 9.085938 -4.832031 9.128906 -5.113281 9.171875 -5.4375 C 9.222656 -5.757812 9.269531 -6.070312 9.3125 -6.375 C 7.46875 -6.46875 5.984375 -6.582031 4.859375 -6.71875 C 3.734375 -6.863281 2.914062 -6.992188 2.40625 -7.109375 C 1.90625 -7.222656 1.65625 -7.28125 1.65625 -7.28125 C 1.632812 -7.28125 1.617188 -7.445312 1.609375 -7.78125 C 1.597656 -8.125 1.59375 -8.585938 1.59375 -9.171875 C 1.601562 -9.753906 1.613281 -10.40625 1.625 -11.125 C 1.644531 -11.851562 1.671875 -12.609375 1.703125 -13.390625 C 1.734375 -14.179688 1.765625 -14.953125 1.796875 -15.703125 C 1.835938 -16.460938 1.882812 -17.160156 1.9375 -17.796875 C 2 -18.429688 2.0625 -18.960938 2.125 -19.390625 C 2.195312 -19.816406 2.273438 -20.085938 2.359375 -20.203125 C 2.359375 -20.203125 2.390625 -20.242188 2.453125 -20.328125 C 2.515625 -20.410156 2.578125 -20.5 2.640625 -20.59375 C 2.710938 -20.6875 2.753906 -20.734375 2.765625 -20.734375 C 2.796875 -20.765625 2.988281 -20.796875 3.34375 -20.828125 C 3.707031 -20.867188 4.1875 -20.914062 4.78125 -20.96875 C 5.375 -21.019531 6.035156 -21.070312 6.765625 -21.125 C 7.503906 -21.175781 8.265625 -21.226562 9.046875 -21.28125 C 9.835938 -21.332031 10.601562 -21.378906 11.34375 -21.421875 C 12.09375 -21.460938 12.773438 -21.492188 13.390625 -21.515625 C 14.015625 -21.546875 14.523438 -21.566406 14.921875 -21.578125 C 15.328125 -21.585938 15.582031 -21.582031 15.6875 -21.5625 C 15.71875 -21.550781 15.75 -21.390625 15.78125 -21.078125 C 15.820312 -20.773438 15.859375 -20.363281 15.890625 -19.84375 C 15.921875 -19.320312 15.953125 -18.734375 15.984375 -18.078125 C 16.023438 -17.429688 16.050781 -16.765625 16.0625 -16.078125 C 16.082031 -15.390625 16.097656 -14.71875 16.109375 -14.0625 C 16.128906 -13.414062 16.132812 -12.832031 16.125 -12.3125 C 16.125 -11.789062 16.113281 -11.375 16.09375 -11.0625 C 16.082031 -10.757812 16.054688 -10.601562 16.015625 -10.59375 C 15.972656 -10.582031 15.796875 -10.570312 15.484375 -10.5625 C 15.179688 -10.5625 14.785156 -10.5625 14.296875 -10.5625 C 13.804688 -10.5625 13.257812 -10.5625 12.65625 -10.5625 C 12.0625 -10.5625 11.445312 -10.5625 10.8125 -10.5625 C 10.1875 -10.5625 9.582031 -10.5625 9 -10.5625 C 8.414062 -10.570312 7.882812 -10.578125 7.40625 -10.578125 C 6.9375 -10.585938 6.566406 -10.59375 6.296875 -10.59375 C 6.023438 -10.59375 5.890625 -10.59375 5.890625 -10.59375 L 5.6875 -8.5625 L 17.890625 -7.921875 L 18.125 -7.671875 C 18.125 -7.671875 18.113281 -7.539062 18.09375 -7.28125 C 18.082031 -7.019531 18.066406 -6.675781 18.046875 -6.25 C 18.023438 -5.820312 18 -5.347656 17.96875 -4.828125 C 17.945312 -4.316406 17.914062 -3.800781 17.875 -3.28125 C 17.832031 -2.769531 17.789062 -2.296875 17.75 -1.859375 C 17.707031 -1.429688 17.664062 -1.078125 17.625 -0.796875 C 17.59375 -0.523438 17.550781 -0.378906 17.5 -0.359375 Z M 17.5 -0.359375 "/></g></g></g><g fill="#4c764a" fill-opacity="1"><g transform="translate(158.1733, 234.48042)"><g><path d="M 1.234375 -9.09375 C 1.066406 -9.90625 0.941406 -10.785156 0.859375 -11.734375 C 0.773438 -12.679688 0.726562 -13.640625 0.71875 -14.609375 C 0.71875 -15.585938 0.738281 -16.519531 0.78125 -17.40625 C 0.820312 -18.289062 0.863281 -19.082031 0.90625 -19.78125 C 0.957031 -20.476562 1.003906 -21.03125 1.046875 -21.4375 C 1.085938 -21.851562 1.109375 -22.0625 1.109375 -22.0625 C 1.460938 -22.101562 1.945312 -22.125 2.5625 -22.125 C 3.1875 -22.132812 3.894531 -22.125 4.6875 -22.09375 C 5.476562 -22.070312 6.3125 -22.035156 7.1875 -21.984375 C 8.0625 -21.941406 8.929688 -21.890625 9.796875 -21.828125 C 10.671875 -21.765625 11.5 -21.703125 12.28125 -21.640625 C 13.070312 -21.578125 13.78125 -21.515625 14.40625 -21.453125 C 15.03125 -21.398438 15.519531 -21.359375 15.875 -21.328125 C 15.894531 -21.128906 15.914062 -20.804688 15.9375 -20.359375 C 15.957031 -19.921875 15.984375 -19.394531 16.015625 -18.78125 C 16.046875 -18.175781 16.070312 -17.523438 16.09375 -16.828125 C 16.125 -16.128906 16.148438 -15.425781 16.171875 -14.71875 C 16.191406 -14.007812 16.203125 -13.335938 16.203125 -12.703125 C 16.210938 -12.066406 16.207031 -11.5 16.1875 -11 C 16.175781 -10.5 16.148438 -10.125 16.109375 -9.875 C 15.640625 -9.84375 15.160156 -9.804688 14.671875 -9.765625 C 14.179688 -9.722656 13.613281 -9.675781 12.96875 -9.625 C 12.320312 -9.582031 11.523438 -9.539062 10.578125 -9.5 C 10.546875 -8.25 10.515625 -7.054688 10.484375 -5.921875 C 10.453125 -4.796875 10.425781 -3.796875 10.40625 -2.921875 C 10.382812 -2.054688 10.363281 -1.375 10.34375 -0.875 C 10.332031 -0.375 10.328125 -0.125 10.328125 -0.125 L 6.796875 -0.4375 L 6.296875 -1.09375 C 6.210938 -2.1875 6.15625 -3.40625 6.125 -4.75 C 6.09375 -6.101562 6.070312 -7.609375 6.0625 -9.265625 C 5.644531 -9.242188 5.175781 -9.222656 4.65625 -9.203125 C 4.144531 -9.179688 3.644531 -9.160156 3.15625 -9.140625 C 2.664062 -9.128906 2.242188 -9.117188 1.890625 -9.109375 C 1.546875 -9.109375 1.328125 -9.101562 1.234375 -9.09375 Z M 1.234375 -9.09375 "/></g></g></g><g fill="#4c764a" fill-opacity="1"><g transform="translate(175.077077, 234.48042)"><g><path d="M 16.5625 -16.078125 C 16.5625 -16.078125 16.476562 -16.066406 16.3125 -16.046875 C 16.144531 -16.035156 15.828125 -16.007812 15.359375 -15.96875 C 14.890625 -15.925781 14.207031 -15.878906 13.3125 -15.828125 C 12.414062 -15.785156 11.238281 -15.726562 9.78125 -15.65625 C 9.78125 -15.65625 9.773438 -15.535156 9.765625 -15.296875 C 9.753906 -15.054688 9.753906 -14.734375 9.765625 -14.328125 C 9.785156 -13.929688 9.832031 -13.5 9.90625 -13.03125 C 9.976562 -12.570312 10.09375 -12.117188 10.25 -11.671875 L 13.984375 -11.6875 C 13.984375 -11.6875 14.070312 -11.6875 14.25 -11.6875 C 14.425781 -11.695312 14.628906 -11.703125 14.859375 -11.703125 C 15.097656 -11.710938 15.304688 -11.71875 15.484375 -11.71875 C 15.660156 -11.726562 15.742188 -11.738281 15.734375 -11.75 C 15.722656 -11.757812 15.726562 -11.691406 15.75 -11.546875 C 15.78125 -11.398438 15.8125 -11.226562 15.84375 -11.03125 C 15.875 -10.84375 15.898438 -10.675781 15.921875 -10.53125 C 15.941406 -10.382812 15.953125 -10.3125 15.953125 -10.3125 L 15.953125 -8.53125 C 15.953125 -8.53125 15.351562 -8.5 14.15625 -8.4375 C 12.96875 -8.375 11.195312 -8.332031 8.84375 -8.3125 L 8.75 -4.65625 L 9.109375 -4.265625 L 16.140625 -4.21875 C 16.140625 -4.21875 16.078125 -4.222656 15.953125 -4.234375 C 15.828125 -4.242188 15.753906 -4.253906 15.734375 -4.265625 C 15.722656 -4.273438 15.773438 -4.242188 15.890625 -4.171875 C 16.003906 -4.097656 16.113281 -4.023438 16.21875 -3.953125 C 16.332031 -3.890625 16.390625 -3.859375 16.390625 -3.859375 L 16.53125 0.25 C 16.53125 0.25 16.550781 0.242188 16.59375 0.234375 C 16.632812 0.222656 16.632812 0.210938 16.59375 0.203125 C 16.550781 0.191406 16.414062 0.179688 16.1875 0.171875 C 15.96875 0.171875 15.59375 0.164062 15.0625 0.15625 C 14.539062 0.15625 13.8125 0.160156 12.875 0.171875 C 11.695312 0.179688 10.597656 0.171875 9.578125 0.140625 C 8.554688 0.117188 7.65625 0.0859375 6.875 0.046875 C 6.101562 0.015625 5.476562 -0.015625 5 -0.046875 C 4.53125 -0.0859375 4.257812 -0.117188 4.1875 -0.140625 C 4.082031 -0.171875 3.976562 -0.273438 3.875 -0.453125 C 3.769531 -0.628906 3.664062 -0.851562 3.5625 -1.125 C 3.46875 -1.394531 3.367188 -1.671875 3.265625 -1.953125 C 3.179688 -2.171875 3.109375 -2.566406 3.046875 -3.140625 C 2.984375 -3.722656 2.929688 -4.425781 2.890625 -5.25 C 2.859375 -6.070312 2.828125 -6.96875 2.796875 -7.9375 C 2.765625 -8.90625 2.742188 -9.894531 2.734375 -10.90625 C 2.734375 -11.914062 2.726562 -12.890625 2.71875 -13.828125 C 2.71875 -14.773438 2.71875 -15.640625 2.71875 -16.421875 C 2.726562 -17.203125 2.734375 -17.84375 2.734375 -18.34375 C 2.734375 -18.84375 2.738281 -19.148438 2.75 -19.265625 C 2.769531 -19.566406 2.828125 -19.878906 2.921875 -20.203125 C 3.023438 -20.523438 3.117188 -20.796875 3.203125 -21.015625 C 3.296875 -21.234375 3.34375 -21.34375 3.34375 -21.34375 L 15.71875 -21.65625 L 16.640625 -21.59375 C 16.640625 -21.59375 16.65625 -21.472656 16.6875 -21.234375 C 16.726562 -21.003906 16.769531 -20.691406 16.8125 -20.296875 C 16.851562 -19.910156 16.878906 -19.472656 16.890625 -18.984375 C 16.910156 -18.503906 16.894531 -18.007812 16.84375 -17.5 C 16.800781 -17 16.707031 -16.523438 16.5625 -16.078125 Z M 16.5625 -16.078125 "/></g></g></g><g fill="#4c764a" fill-opacity="1"><g transform="translate(194.302967, 234.48042)"><g><path d="M 14.9375 -8.28125 C 14.9375 -8.28125 15.019531 -8.191406 15.1875 -8.015625 C 15.363281 -7.835938 15.59375 -7.601562 15.875 -7.3125 C 16.15625 -7.019531 16.460938 -6.6875 16.796875 -6.3125 C 17.140625 -5.945312 17.476562 -5.578125 17.8125 -5.203125 C 18.15625 -4.828125 18.460938 -4.472656 18.734375 -4.140625 C 19.003906 -3.804688 19.21875 -3.519531 19.375 -3.28125 C 19.050781 -2.96875 18.757812 -2.671875 18.5 -2.390625 C 18.238281 -2.117188 17.976562 -1.851562 17.71875 -1.59375 C 17.457031 -1.332031 17.160156 -1.0625 16.828125 -0.78125 L 15.140625 0.1875 L 15.0625 0.234375 C 15.050781 0.222656 15.003906 0.210938 14.921875 0.203125 C 14.835938 0.191406 14.757812 0.179688 14.6875 0.171875 C 14.613281 0.160156 14.578125 0.15625 14.578125 0.15625 L 9.953125 -7.296875 C 9.304688 -7.335938 8.75 -7.390625 8.28125 -7.453125 C 7.8125 -7.515625 7.320312 -7.566406 6.8125 -7.609375 L 6.8125 -0.453125 L 6.1875 -0.140625 L 3.0625 -0.359375 C 3.019531 -2.160156 2.976562 -3.910156 2.9375 -5.609375 C 2.894531 -7.304688 2.851562 -8.910156 2.8125 -10.421875 C 2.769531 -11.929688 2.734375 -13.3125 2.703125 -14.5625 C 2.671875 -15.820312 2.640625 -16.90625 2.609375 -17.8125 C 2.578125 -18.726562 2.554688 -19.4375 2.546875 -19.9375 C 2.535156 -20.4375 2.53125 -20.6875 2.53125 -20.6875 L 3.296875 -21.4375 C 3.421875 -21.488281 3.609375 -21.535156 3.859375 -21.578125 C 4.109375 -21.628906 4.375 -21.675781 4.65625 -21.71875 C 4.9375 -21.757812 5.203125 -21.796875 5.453125 -21.828125 C 5.703125 -21.859375 5.894531 -21.882812 6.03125 -21.90625 C 6.8125 -22 7.609375 -22.054688 8.421875 -22.078125 C 9.242188 -22.109375 10.050781 -22.113281 10.84375 -22.09375 C 11.632812 -22.082031 12.378906 -22.050781 13.078125 -22 C 13.773438 -21.957031 14.390625 -21.910156 14.921875 -21.859375 C 15.453125 -21.816406 15.867188 -21.78125 16.171875 -21.75 C 16.484375 -21.71875 16.640625 -21.703125 16.640625 -21.703125 C 16.742188 -20.921875 16.800781 -20.046875 16.8125 -19.078125 C 16.820312 -18.109375 16.789062 -17.109375 16.71875 -16.078125 C 16.644531 -15.054688 16.523438 -14.050781 16.359375 -13.0625 C 16.203125 -12.082031 16.003906 -11.179688 15.765625 -10.359375 C 15.523438 -9.535156 15.25 -8.84375 14.9375 -8.28125 Z M 10.515625 -14.953125 L 6.09375 -14.875 C 6.09375 -14.875 6.082031 -14.765625 6.0625 -14.546875 C 6.039062 -14.335938 6.019531 -14.085938 6 -13.796875 C 5.976562 -13.503906 5.957031 -13.226562 5.9375 -12.96875 C 5.925781 -12.707031 5.925781 -12.53125 5.9375 -12.4375 C 5.925781 -12.3125 5.929688 -12.132812 5.953125 -11.90625 C 5.984375 -11.6875 6.015625 -11.484375 6.046875 -11.296875 C 6.078125 -11.109375 6.09375 -11.015625 6.09375 -11.015625 C 6.09375 -11.015625 6.164062 -11 6.3125 -10.96875 C 6.46875 -10.945312 6.644531 -10.925781 6.84375 -10.90625 C 7.050781 -10.882812 7.222656 -10.878906 7.359375 -10.890625 C 7.441406 -10.878906 7.597656 -10.878906 7.828125 -10.890625 C 8.066406 -10.910156 8.335938 -10.9375 8.640625 -10.96875 C 8.953125 -11 9.25 -11.03125 9.53125 -11.0625 C 9.820312 -11.09375 10.0625 -11.117188 10.25 -11.140625 C 10.4375 -11.160156 10.53125 -11.171875 10.53125 -11.171875 C 10.613281 -11.535156 10.660156 -11.929688 10.671875 -12.359375 C 10.679688 -12.796875 10.671875 -13.207031 10.640625 -13.59375 C 10.617188 -13.988281 10.59375 -14.3125 10.5625 -14.5625 C 10.53125 -14.820312 10.515625 -14.953125 10.515625 -14.953125 Z M 10.515625 -14.953125 "/></g></g></g><g fill="#4c764a" fill-opacity="1"><g transform="translate(213.86058, 234.48042)"><g/></g></g><g fill="#4c764a" fill-opacity="1"><g transform="translate(222.745159, 234.48042)"><g><path d="M 13.015625 -9.1875 L 13.125 -21.640625 C 13.15625 -21.703125 13.226562 -21.75 13.34375 -21.78125 C 13.457031 -21.8125 13.566406 -21.832031 13.671875 -21.84375 C 13.785156 -21.851562 13.84375 -21.859375 13.84375 -21.859375 C 13.84375 -21.859375 14 -21.859375 14.3125 -21.859375 C 14.625 -21.867188 15.0625 -21.847656 15.625 -21.796875 C 16.195312 -21.753906 16.867188 -21.640625 17.640625 -21.453125 C 17.660156 -21.453125 17.671875 -21.25 17.671875 -20.84375 C 17.679688 -20.4375 17.679688 -19.878906 17.671875 -19.171875 C 17.671875 -18.460938 17.660156 -17.644531 17.640625 -16.71875 C 17.617188 -15.789062 17.597656 -14.796875 17.578125 -13.734375 C 17.566406 -12.671875 17.546875 -11.585938 17.515625 -10.484375 C 17.492188 -9.378906 17.46875 -8.296875 17.4375 -7.234375 C 17.414062 -6.179688 17.394531 -5.191406 17.375 -4.265625 C 17.351562 -3.347656 17.332031 -2.535156 17.3125 -1.828125 C 17.289062 -1.117188 17.273438 -0.5625 17.265625 -0.15625 C 17.253906 0.25 17.25 0.453125 17.25 0.453125 L 11.703125 0.28125 C 11.703125 0.28125 11.640625 0.179688 11.515625 -0.015625 C 11.390625 -0.222656 11.234375 -0.476562 11.046875 -0.78125 C 10.859375 -1.082031 10.664062 -1.394531 10.46875 -1.71875 C 10.28125 -2.039062 10.113281 -2.320312 9.96875 -2.5625 C 9.820312 -2.800781 9.734375 -2.941406 9.703125 -2.984375 C 9.679688 -3.035156 9.601562 -3.179688 9.46875 -3.421875 C 9.332031 -3.660156 9.160156 -3.957031 8.953125 -4.3125 C 8.753906 -4.664062 8.546875 -5.035156 8.328125 -5.421875 C 8.109375 -5.804688 7.90625 -6.171875 7.71875 -6.515625 C 7.53125 -6.859375 7.375 -7.132812 7.25 -7.34375 C 7.125 -7.550781 7.0625 -7.65625 7.0625 -7.65625 C 7.0625 -7.65625 7.066406 -7.550781 7.078125 -7.34375 C 7.085938 -7.144531 7.097656 -6.878906 7.109375 -6.546875 C 7.117188 -6.210938 7.128906 -5.859375 7.140625 -5.484375 C 7.160156 -5.109375 7.175781 -4.742188 7.1875 -4.390625 C 7.195312 -4.046875 7.207031 -3.753906 7.21875 -3.515625 C 7.226562 -3.273438 7.234375 -3.132812 7.234375 -3.09375 C 7.234375 -3.03125 7.226562 -2.878906 7.21875 -2.640625 C 7.21875 -2.410156 7.210938 -2.132812 7.203125 -1.8125 C 7.203125 -1.5 7.195312 -1.191406 7.1875 -0.890625 C 7.175781 -0.597656 7.164062 -0.347656 7.15625 -0.140625 C 7.15625 0.0546875 7.15625 0.15625 7.15625 0.15625 L 6.6875 0.296875 L 3.046875 0.140625 L 2.546875 -0.515625 C 2.492188 -1.296875 2.445312 -2.15625 2.40625 -3.09375 C 2.375 -4.039062 2.347656 -5.03125 2.328125 -6.0625 C 2.316406 -7.101562 2.3125 -8.144531 2.3125 -9.1875 C 2.3125 -10.238281 2.316406 -11.257812 2.328125 -12.25 C 2.335938 -13.238281 2.347656 -14.160156 2.359375 -15.015625 C 2.367188 -15.867188 2.378906 -16.617188 2.390625 -17.265625 C 2.410156 -17.910156 2.425781 -18.414062 2.4375 -18.78125 C 2.445312 -19.144531 2.453125 -19.328125 2.453125 -19.328125 L 3.171875 -19.546875 C 3.171875 -19.546875 3.332031 -19.546875 3.65625 -19.546875 C 3.976562 -19.554688 4.398438 -19.550781 4.921875 -19.53125 C 5.453125 -19.519531 6.019531 -19.484375 6.625 -19.421875 C 7.238281 -19.367188 7.832031 -19.273438 8.40625 -19.140625 L 8.421875 -19.125 C 8.421875 -19.125 8.472656 -19.019531 8.578125 -18.8125 C 8.691406 -18.601562 8.832031 -18.316406 9 -17.953125 C 9.175781 -17.597656 9.367188 -17.207031 9.578125 -16.78125 C 9.785156 -16.363281 9.992188 -15.9375 10.203125 -15.5 C 10.421875 -15.070312 10.617188 -14.671875 10.796875 -14.296875 C 10.984375 -13.929688 11.132812 -13.625 11.25 -13.375 C 11.375 -13.132812 11.445312 -12.992188 11.46875 -12.953125 C 11.5 -12.898438 11.566406 -12.738281 11.671875 -12.46875 C 11.785156 -12.195312 11.914062 -11.878906 12.0625 -11.515625 C 12.21875 -11.148438 12.363281 -10.785156 12.5 -10.421875 C 12.644531 -10.066406 12.765625 -9.769531 12.859375 -9.53125 C 12.960938 -9.300781 13.015625 -9.1875 13.015625 -9.1875 Z M 13.015625 -9.1875 "/></g></g></g><g fill="#4c764a" fill-opacity="1"><g transform="translate(241.639313, 234.48042)"><g><path d="M 11.734375 -16.984375 L 14 -20.625 L 14.71875 -20.84375 C 14.71875 -20.84375 14.910156 -20.84375 15.296875 -20.84375 C 15.679688 -20.851562 16.191406 -20.832031 16.828125 -20.78125 C 17.460938 -20.738281 18.164062 -20.625 18.9375 -20.4375 C 18.957031 -20.4375 18.96875 -20.242188 18.96875 -19.859375 C 18.976562 -19.484375 18.976562 -18.957031 18.96875 -18.28125 C 18.96875 -17.613281 18.957031 -16.84375 18.9375 -15.96875 C 18.914062 -15.101562 18.894531 -14.171875 18.875 -13.171875 C 18.863281 -12.179688 18.84375 -11.164062 18.8125 -10.125 C 18.789062 -9.082031 18.769531 -8.0625 18.75 -7.0625 C 18.726562 -6.070312 18.703125 -5.140625 18.671875 -4.265625 C 18.648438 -3.398438 18.628906 -2.632812 18.609375 -1.96875 C 18.585938 -1.3125 18.570312 -0.789062 18.5625 -0.40625 C 18.550781 -0.03125 18.546875 0.15625 18.546875 0.15625 L 14.578125 0.4375 L 14.46875 -7.03125 L 11.28125 -4.640625 L 8.375 -8.671875 C 8.375 -8.671875 8.375 -8.539062 8.375 -8.28125 C 8.382812 -8.03125 8.394531 -7.703125 8.40625 -7.296875 C 8.414062 -6.890625 8.425781 -6.457031 8.4375 -6 C 8.457031 -5.539062 8.472656 -5.097656 8.484375 -4.671875 C 8.492188 -4.253906 8.503906 -3.898438 8.515625 -3.609375 C 8.523438 -3.316406 8.53125 -3.144531 8.53125 -3.09375 C 8.53125 -3.03125 8.523438 -2.875 8.515625 -2.625 C 8.515625 -2.382812 8.507812 -2.097656 8.5 -1.765625 C 8.5 -1.429688 8.492188 -1.109375 8.484375 -0.796875 C 8.472656 -0.484375 8.460938 -0.222656 8.453125 -0.015625 C 8.453125 0.191406 8.453125 0.296875 8.453125 0.296875 L 8 0.453125 L 3.328125 0.140625 L 2.84375 -0.515625 C 2.78125 -1.296875 2.734375 -2.191406 2.703125 -3.203125 C 2.671875 -4.210938 2.644531 -5.289062 2.625 -6.4375 C 2.601562 -7.582031 2.59375 -8.742188 2.59375 -9.921875 C 2.59375 -11.109375 2.597656 -12.269531 2.609375 -13.40625 C 2.617188 -14.539062 2.628906 -15.601562 2.640625 -16.59375 C 2.660156 -17.59375 2.675781 -18.46875 2.6875 -19.21875 C 2.707031 -19.976562 2.71875 -20.570312 2.71875 -21 C 2.726562 -21.425781 2.734375 -21.640625 2.734375 -21.640625 L 3.46875 -21.859375 C 3.46875 -21.859375 3.582031 -21.867188 3.8125 -21.890625 C 4.050781 -21.910156 4.359375 -21.925781 4.734375 -21.9375 C 5.117188 -21.945312 5.535156 -21.941406 5.984375 -21.921875 C 6.441406 -21.898438 6.890625 -21.84375 7.328125 -21.75 C 7.773438 -21.664062 8.171875 -21.53125 8.515625 -21.34375 Z M 11.734375 -16.984375 "/></g></g></g><g fill="#4c764a" fill-opacity="1"><g transform="translate(262.480581, 234.48042)"><g><path d="M 1.234375 -9.09375 C 1.066406 -9.90625 0.941406 -10.785156 0.859375 -11.734375 C 0.773438 -12.679688 0.726562 -13.640625 0.71875 -14.609375 C 0.71875 -15.585938 0.738281 -16.519531 0.78125 -17.40625 C 0.820312 -18.289062 0.863281 -19.082031 0.90625 -19.78125 C 0.957031 -20.476562 1.003906 -21.03125 1.046875 -21.4375 C 1.085938 -21.851562 1.109375 -22.0625 1.109375 -22.0625 C 1.460938 -22.101562 1.945312 -22.125 2.5625 -22.125 C 3.1875 -22.132812 3.894531 -22.125 4.6875 -22.09375 C 5.476562 -22.070312 6.3125 -22.035156 7.1875 -21.984375 C 8.0625 -21.941406 8.929688 -21.890625 9.796875 -21.828125 C 10.671875 -21.765625 11.5 -21.703125 12.28125 -21.640625 C 13.070312 -21.578125 13.78125 -21.515625 14.40625 -21.453125 C 15.03125 -21.398438 15.519531 -21.359375 15.875 -21.328125 C 15.894531 -21.128906 15.914062 -20.804688 15.9375 -20.359375 C 15.957031 -19.921875 15.984375 -19.394531 16.015625 -18.78125 C 16.046875 -18.175781 16.070312 -17.523438 16.09375 -16.828125 C 16.125 -16.128906 16.148438 -15.425781 16.171875 -14.71875 C 16.191406 -14.007812 16.203125 -13.335938 16.203125 -12.703125 C 16.210938 -12.066406 16.207031 -11.5 16.1875 -11 C 16.175781 -10.5 16.148438 -10.125 16.109375 -9.875 C 15.640625 -9.84375 15.160156 -9.804688 14.671875 -9.765625 C 14.179688 -9.722656 13.613281 -9.675781 12.96875 -9.625 C 12.320312 -9.582031 11.523438 -9.539062 10.578125 -9.5 C 10.546875 -8.25 10.515625 -7.054688 10.484375 -5.921875 C 10.453125 -4.796875 10.425781 -3.796875 10.40625 -2.921875 C 10.382812 -2.054688 10.363281 -1.375 10.34375 -0.875 C 10.332031 -0.375 10.328125 -0.125 10.328125 -0.125 L 6.796875 -0.4375 L 6.296875 -1.09375 C 6.210938 -2.1875 6.15625 -3.40625 6.125 -4.75 C 6.09375 -6.101562 6.070312 -7.609375 6.0625 -9.265625 C 5.644531 -9.242188 5.175781 -9.222656 4.65625 -9.203125 C 4.144531 -9.179688 3.644531 -9.160156 3.15625 -9.140625 C 2.664062 -9.128906 2.242188 -9.117188 1.890625 -9.109375 C 1.546875 -9.109375 1.328125 -9.101562 1.234375 -9.09375 Z M 1.234375 -9.09375 "/></g></g></g><g fill="#000000" fill-opacity="1"><g transform="translate(111.640242, 257.720403)"><g><path d="M 11.1875 -0.109375 C 10.988281 -0.0976562 10.816406 -0.164062 10.671875 -0.3125 C 10.535156 -0.46875 10.40625 -0.65625 10.28125 -0.875 C 10.164062 -1.101562 10.050781 -1.332031 9.9375 -1.5625 L 8.359375 -4.296875 C 7.972656 -3.753906 7.570312 -3.207031 7.15625 -2.65625 C 6.75 -2.113281 6.351562 -1.566406 5.96875 -1.015625 C 5.894531 -0.910156 5.8125 -0.789062 5.71875 -0.65625 C 5.625 -0.53125 5.519531 -0.4375 5.40625 -0.375 C 5.320312 -0.320312 5.234375 -0.289062 5.140625 -0.28125 C 5.046875 -0.269531 4.953125 -0.238281 4.859375 -0.1875 C 4.441406 -0.0195312 4.109375 -0.0390625 3.859375 -0.25 C 3.660156 -0.414062 3.523438 -0.65625 3.453125 -0.96875 C 3.378906 -1.289062 3.3125 -1.570312 3.25 -1.8125 C 3.132812 -2.132812 3.023438 -2.453125 2.921875 -2.765625 C 2.828125 -3.085938 2.722656 -3.40625 2.609375 -3.71875 L 1.484375 -7.296875 C 1.398438 -7.566406 1.300781 -7.851562 1.1875 -8.15625 C 1.082031 -8.46875 1 -8.738281 0.9375 -8.96875 C 0.875 -9.207031 0.84375 -9.367188 0.84375 -9.453125 C 0.84375 -9.703125 0.925781 -9.910156 1.09375 -10.078125 C 1.1875 -10.191406 1.296875 -10.269531 1.421875 -10.3125 C 1.554688 -10.351562 1.6875 -10.375 1.8125 -10.375 C 1.96875 -10.375 2.113281 -10.328125 2.25 -10.234375 C 2.382812 -10.140625 2.488281 -10 2.5625 -9.8125 C 2.9375 -8.59375 3.316406 -7.378906 3.703125 -6.171875 C 4.097656 -4.972656 4.488281 -3.769531 4.875 -2.5625 C 5.175781 -2.957031 5.472656 -3.351562 5.765625 -3.75 C 6.054688 -4.15625 6.347656 -4.566406 6.640625 -4.984375 C 6.773438 -5.140625 6.914062 -5.335938 7.0625 -5.578125 C 7.21875 -5.828125 7.382812 -6.046875 7.5625 -6.234375 C 7.75 -6.429688 7.957031 -6.523438 8.1875 -6.515625 C 8.34375 -6.609375 8.492188 -6.65625 8.640625 -6.65625 C 8.828125 -6.65625 8.988281 -6.582031 9.125 -6.4375 C 9.257812 -6.300781 9.378906 -6.132812 9.484375 -5.9375 C 9.585938 -5.75 9.691406 -5.570312 9.796875 -5.40625 C 10.015625 -5.007812 10.234375 -4.613281 10.453125 -4.21875 C 10.679688 -3.820312 10.910156 -3.429688 11.140625 -3.046875 C 11.460938 -3.972656 11.789062 -4.882812 12.125 -5.78125 C 12.457031 -6.6875 12.8125 -7.582031 13.1875 -8.46875 C 13.28125 -8.6875 13.390625 -8.953125 13.515625 -9.265625 C 13.640625 -9.585938 13.769531 -9.882812 13.90625 -10.15625 C 14.050781 -10.425781 14.179688 -10.597656 14.296875 -10.671875 C 14.441406 -10.773438 14.617188 -10.8125 14.828125 -10.78125 C 15.046875 -10.75 15.242188 -10.660156 15.421875 -10.515625 C 15.597656 -10.367188 15.6875 -10.179688 15.6875 -9.953125 C 15.6875 -9.691406 15.613281 -9.425781 15.46875 -9.15625 C 15.320312 -8.894531 15.203125 -8.648438 15.109375 -8.421875 C 14.816406 -7.742188 14.554688 -7.125 14.328125 -6.5625 C 14.109375 -6 13.890625 -5.429688 13.671875 -4.859375 C 13.453125 -4.296875 13.21875 -3.660156 12.96875 -2.953125 C 12.90625 -2.773438 12.835938 -2.546875 12.765625 -2.265625 C 12.703125 -1.992188 12.617188 -1.734375 12.515625 -1.484375 C 12.421875 -1.234375 12.28125 -1.050781 12.09375 -0.9375 C 12.050781 -0.695312 11.9375 -0.5 11.75 -0.34375 C 11.570312 -0.1875 11.382812 -0.109375 11.1875 -0.109375 Z M 11.1875 -0.109375 "/></g></g></g><g fill="#000000" fill-opacity="1"><g transform="translate(130.643375, 257.720403)"><g><path d="M 3.265625 -0.03125 C 2.722656 -0.03125 2.273438 -0.179688 1.921875 -0.484375 C 1.566406 -0.796875 1.28125 -1.191406 1.0625 -1.671875 C 0.84375 -2.160156 0.6875 -2.6875 0.59375 -3.25 C 0.5 -3.8125 0.453125 -4.347656 0.453125 -4.859375 C 0.453125 -5.210938 0.476562 -5.617188 0.53125 -6.078125 C 0.582031 -6.535156 0.679688 -7.015625 0.828125 -7.515625 C 0.984375 -8.023438 1.21875 -8.488281 1.53125 -8.90625 C 1.8125 -9.300781 2.15625 -9.628906 2.5625 -9.890625 C 2.96875 -10.160156 3.410156 -10.296875 3.890625 -10.296875 C 4.546875 -10.296875 5.078125 -10.085938 5.484375 -9.671875 C 5.898438 -9.265625 6.175781 -8.769531 6.3125 -8.1875 C 6.375 -8 6.410156 -7.78125 6.421875 -7.53125 C 6.441406 -7.28125 6.453125 -7.039062 6.453125 -6.8125 C 6.453125 -6.59375 6.441406 -6.414062 6.421875 -6.28125 C 6.390625 -6.050781 6.34375 -5.8125 6.28125 -5.5625 C 6.226562 -5.320312 6.070312 -5.15625 5.8125 -5.0625 C 5.539062 -4.957031 5.226562 -4.878906 4.875 -4.828125 C 4.53125 -4.785156 4.203125 -4.738281 3.890625 -4.6875 C 3.566406 -4.625 3.242188 -4.546875 2.921875 -4.453125 C 2.609375 -4.367188 2.335938 -4.363281 2.109375 -4.4375 C 2.117188 -4.269531 2.140625 -4.035156 2.171875 -3.734375 C 2.210938 -3.429688 2.273438 -3.125 2.359375 -2.8125 C 2.441406 -2.5 2.5625 -2.234375 2.71875 -2.015625 C 2.882812 -1.796875 3.09375 -1.6875 3.34375 -1.6875 C 3.53125 -1.6875 3.738281 -1.757812 3.96875 -1.90625 C 4.195312 -2.0625 4.421875 -2.25 4.640625 -2.46875 C 4.867188 -2.6875 5.070312 -2.894531 5.25 -3.09375 C 5.414062 -3.289062 5.617188 -3.398438 5.859375 -3.421875 C 6.097656 -3.441406 6.304688 -3.363281 6.484375 -3.1875 C 6.640625 -3.019531 6.71875 -2.84375 6.71875 -2.65625 C 6.71875 -2.4375 6.628906 -2.21875 6.453125 -2 C 6.273438 -1.78125 6.109375 -1.585938 5.953125 -1.421875 C 5.597656 -1.078125 5.191406 -0.757812 4.734375 -0.46875 C 4.273438 -0.175781 3.785156 -0.03125 3.265625 -0.03125 Z M 2.15625 -6.03125 C 2.3125 -6.050781 2.507812 -6.082031 2.75 -6.125 C 3 -6.175781 3.25 -6.222656 3.5 -6.265625 C 3.75 -6.316406 3.96875 -6.359375 4.15625 -6.390625 C 4.34375 -6.429688 4.445312 -6.453125 4.46875 -6.453125 C 4.550781 -6.472656 4.625 -6.484375 4.6875 -6.484375 C 4.757812 -6.484375 4.800781 -6.550781 4.8125 -6.6875 C 4.8125 -6.882812 4.8125 -7.003906 4.8125 -7.046875 C 4.820312 -7.085938 4.828125 -7.125 4.828125 -7.15625 C 4.828125 -7.195312 4.816406 -7.3125 4.796875 -7.5 C 4.671875 -8.195312 4.453125 -8.566406 4.140625 -8.609375 C 3.828125 -8.648438 3.421875 -8.46875 2.921875 -8.0625 L 2.859375 -7.96875 C 2.671875 -7.6875 2.519531 -7.378906 2.40625 -7.046875 C 2.289062 -6.710938 2.207031 -6.375 2.15625 -6.03125 Z M 2.15625 -6.03125 "/></g></g></g><g fill="#000000" fill-opacity="1"><g transform="translate(140.721548, 257.720403)"><g><path d="M 3.53125 0.046875 C 3.40625 0.046875 3.285156 0.0351562 3.171875 0.015625 C 3.054688 -0.00390625 2.941406 -0.0195312 2.828125 -0.03125 C 2.710938 -0.0507812 2.601562 -0.0664062 2.5 -0.078125 C 2.40625 -0.0976562 2.300781 -0.109375 2.1875 -0.109375 C 1.894531 -0.109375 1.671875 -0.222656 1.515625 -0.453125 C 1.359375 -0.679688 1.242188 -0.960938 1.171875 -1.296875 C 1.097656 -1.640625 1.050781 -1.972656 1.03125 -2.296875 C 1.007812 -2.617188 0.988281 -2.867188 0.96875 -3.046875 C 0.914062 -3.523438 0.867188 -3.988281 0.828125 -4.4375 C 0.796875 -4.894531 0.78125 -5.347656 0.78125 -5.796875 C 0.78125 -7.578125 1 -9.335938 1.4375 -11.078125 C 1.476562 -11.273438 1.523438 -11.5 1.578125 -11.75 C 1.640625 -12 1.738281 -12.21875 1.875 -12.40625 C 2.019531 -12.59375 2.238281 -12.6875 2.53125 -12.6875 C 2.695312 -12.6875 2.847656 -12.640625 2.984375 -12.546875 C 3.128906 -12.460938 3.234375 -12.34375 3.296875 -12.1875 C 3.335938 -12.082031 3.359375 -11.957031 3.359375 -11.8125 C 3.359375 -11.644531 3.332031 -11.472656 3.28125 -11.296875 C 3.226562 -11.117188 3.175781 -10.945312 3.125 -10.78125 C 3.101562 -10.707031 3.082031 -10.628906 3.0625 -10.546875 C 3.039062 -10.472656 3.019531 -10.398438 3 -10.328125 C 2.925781 -10.035156 2.859375 -9.75 2.796875 -9.46875 C 2.742188 -9.195312 2.703125 -8.929688 2.671875 -8.671875 C 3.128906 -8.734375 3.617188 -8.742188 4.140625 -8.703125 C 4.671875 -8.660156 5.191406 -8.550781 5.703125 -8.375 C 6.210938 -8.195312 6.679688 -7.929688 7.109375 -7.578125 C 7.535156 -7.234375 7.882812 -6.773438 8.15625 -6.203125 C 8.28125 -5.921875 8.378906 -5.625 8.453125 -5.3125 C 8.523438 -5.007812 8.5625 -4.707031 8.5625 -4.40625 C 8.5625 -4.070312 8.515625 -3.738281 8.421875 -3.40625 C 8.335938 -3.082031 8.203125 -2.769531 8.015625 -2.46875 C 7.710938 -2.03125 7.335938 -1.660156 6.890625 -1.359375 C 6.441406 -1.054688 5.984375 -0.789062 5.515625 -0.5625 C 5.203125 -0.414062 4.878906 -0.273438 4.546875 -0.140625 C 4.222656 -0.015625 3.882812 0.046875 3.53125 0.046875 Z M 3.359375 -1.625 C 3.367188 -1.625 3.382812 -1.625 3.40625 -1.625 C 3.4375 -1.625 3.46875 -1.628906 3.5 -1.640625 L 3.546875 -1.640625 C 3.878906 -1.722656 4.234375 -1.835938 4.609375 -1.984375 C 4.992188 -2.140625 5.359375 -2.320312 5.703125 -2.53125 C 6.046875 -2.75 6.328125 -3.003906 6.546875 -3.296875 C 6.765625 -3.597656 6.878906 -3.941406 6.890625 -4.328125 C 6.910156 -4.953125 6.757812 -5.460938 6.4375 -5.859375 C 6.113281 -6.265625 5.691406 -6.566406 5.171875 -6.765625 C 4.648438 -6.972656 4.117188 -7.078125 3.578125 -7.078125 C 3.492188 -7.078125 3.410156 -7.070312 3.328125 -7.0625 C 3.242188 -7.0625 3.160156 -7.050781 3.078125 -7.03125 L 2.5625 -6.9375 C 2.550781 -6.925781 2.523438 -6.921875 2.484375 -6.921875 C 2.472656 -6.722656 2.460938 -6.519531 2.453125 -6.3125 C 2.453125 -6.113281 2.453125 -5.921875 2.453125 -5.734375 C 2.460938 -5.347656 2.476562 -4.957031 2.5 -4.5625 C 2.53125 -4.164062 2.566406 -3.769531 2.609375 -3.375 C 2.617188 -3.34375 2.625 -3.296875 2.625 -3.234375 C 2.625 -3.179688 2.625 -3.128906 2.625 -3.078125 C 2.644531 -2.910156 2.664062 -2.722656 2.6875 -2.515625 C 2.707031 -2.316406 2.742188 -2.140625 2.796875 -1.984375 C 2.847656 -1.835938 2.921875 -1.75 3.015625 -1.71875 L 3.140625 -1.671875 C 3.234375 -1.640625 3.304688 -1.625 3.359375 -1.625 Z M 3.359375 -1.625 "/></g></g></g><g fill="#000000" fill-opacity="1"><g transform="translate(152.554633, 257.720403)"><g/></g></g><g fill="#000000" fill-opacity="1"><g transform="translate(159.641116, 257.720403)"><g><path d="M 2.65625 -0.03125 C 1.9375 -0.132812 1.382812 -0.421875 1 -0.890625 C 0.613281 -1.359375 0.421875 -1.867188 0.421875 -2.421875 C 0.421875 -2.910156 0.546875 -3.390625 0.796875 -3.859375 C 1.054688 -4.328125 1.335938 -4.734375 1.640625 -5.078125 C 1.929688 -5.410156 2.242188 -5.703125 2.578125 -5.953125 C 2.921875 -6.210938 3.328125 -6.460938 3.796875 -6.703125 C 4.273438 -6.953125 4.851562 -7.234375 5.53125 -7.546875 C 5.414062 -7.929688 5.226562 -8.25 4.96875 -8.5 C 4.707031 -8.75 4.421875 -8.910156 4.109375 -8.984375 C 3.804688 -9.066406 3.519531 -9.046875 3.25 -8.921875 C 2.976562 -8.796875 2.769531 -8.539062 2.625 -8.15625 C 2.570312 -8.007812 2.46875 -7.894531 2.3125 -7.8125 C 2.164062 -7.726562 2.015625 -7.6875 1.859375 -7.6875 C 1.660156 -7.6875 1.46875 -7.757812 1.28125 -7.90625 C 1.09375 -8.050781 1 -8.25 1 -8.5 C 1 -8.71875 1.0625 -8.9375 1.1875 -9.15625 C 1.3125 -9.382812 1.457031 -9.59375 1.625 -9.78125 C 1.800781 -9.976562 1.960938 -10.128906 2.109375 -10.234375 C 2.359375 -10.421875 2.617188 -10.550781 2.890625 -10.625 C 3.171875 -10.707031 3.453125 -10.75 3.734375 -10.75 C 4.253906 -10.75 4.753906 -10.617188 5.234375 -10.359375 C 5.710938 -10.109375 6.128906 -9.765625 6.484375 -9.328125 C 6.835938 -8.898438 7.078125 -8.421875 7.203125 -7.890625 C 7.296875 -7.460938 7.347656 -7.101562 7.359375 -6.8125 C 7.367188 -6.53125 7.375 -6.273438 7.375 -6.046875 C 7.375 -5.335938 7.328125 -4.617188 7.234375 -3.890625 C 7.140625 -3.171875 7.0625 -2.445312 7 -1.71875 C 6.988281 -1.5 6.960938 -1.285156 6.921875 -1.078125 C 6.878906 -0.878906 6.742188 -0.722656 6.515625 -0.609375 C 6.367188 -0.535156 6.253906 -0.503906 6.171875 -0.515625 C 6.097656 -0.523438 5.90625 -0.554688 5.59375 -0.609375 C 5.570312 -0.585938 5.546875 -0.566406 5.515625 -0.546875 C 5.484375 -0.535156 5.453125 -0.519531 5.421875 -0.5 C 4.898438 -0.289062 4.414062 -0.148438 3.96875 -0.078125 C 3.53125 -0.00390625 3.09375 0.0078125 2.65625 -0.03125 Z M 3.1875 -1.703125 C 3.457031 -1.703125 3.722656 -1.738281 3.984375 -1.8125 C 4.242188 -1.882812 4.5 -1.972656 4.75 -2.078125 C 4.988281 -2.117188 5.125 -2.144531 5.15625 -2.15625 C 5.195312 -2.164062 5.257812 -2.160156 5.34375 -2.140625 C 5.394531 -2.742188 5.457031 -3.34375 5.53125 -3.9375 C 5.613281 -4.53125 5.660156 -5.128906 5.671875 -5.734375 C 5.253906 -5.535156 4.832031 -5.320312 4.40625 -5.09375 C 3.988281 -4.863281 3.601562 -4.59375 3.25 -4.28125 C 2.894531 -3.96875 2.601562 -3.59375 2.375 -3.15625 C 2.289062 -3.007812 2.226562 -2.859375 2.1875 -2.703125 C 2.144531 -2.546875 2.128906 -2.382812 2.140625 -2.21875 C 2.203125 -2.007812 2.3125 -1.878906 2.46875 -1.828125 C 2.632812 -1.773438 2.875 -1.734375 3.1875 -1.703125 Z M 3.1875 -1.703125 "/></g></g></g><g fill="#000000" fill-opacity="1"><g transform="translate(170.337679, 257.720403)"><g><path d="M 2.046875 5.78125 C 1.835938 5.78125 1.675781 5.726562 1.5625 5.625 C 1.375 5.46875 1.273438 5.285156 1.265625 5.078125 C 1.253906 4.867188 1.242188 4.660156 1.234375 4.453125 L 1.140625 1.40625 L 0.9375 -5 L 0.890625 -6.671875 C 0.878906 -6.785156 0.867188 -6.898438 0.859375 -7.015625 C 0.847656 -7.128906 0.84375 -7.25 0.84375 -7.375 C 0.84375 -7.695312 0.921875 -7.929688 1.078125 -8.078125 C 1.242188 -8.222656 1.425781 -8.296875 1.625 -8.296875 C 1.800781 -8.296875 1.96875 -8.238281 2.125 -8.125 C 2.28125 -8.007812 2.378906 -7.84375 2.421875 -7.625 C 2.660156 -7.75 2.898438 -7.835938 3.140625 -7.890625 C 3.390625 -7.953125 3.628906 -7.984375 3.859375 -7.984375 C 4.421875 -7.984375 4.925781 -7.867188 5.375 -7.640625 C 5.820312 -7.410156 6.207031 -7.101562 6.53125 -6.71875 C 6.863281 -6.332031 7.117188 -5.910156 7.296875 -5.453125 C 7.484375 -4.992188 7.578125 -4.535156 7.578125 -4.078125 C 7.578125 -3.535156 7.46875 -3.015625 7.25 -2.515625 C 7.039062 -2.023438 6.75 -1.59375 6.375 -1.21875 C 6 -0.84375 5.5625 -0.546875 5.0625 -0.328125 C 4.570312 -0.109375 4.050781 0 3.5 0 C 3.363281 0 3.222656 -0.00390625 3.078125 -0.015625 C 2.941406 -0.0351562 2.804688 -0.0546875 2.671875 -0.078125 L 2.78125 3.125 C 2.789062 3.363281 2.8125 3.644531 2.84375 3.96875 C 2.882812 4.300781 2.894531 4.613281 2.875 4.90625 C 2.851562 5.207031 2.742188 5.445312 2.546875 5.625 C 2.398438 5.726562 2.234375 5.78125 2.046875 5.78125 Z M 3.453125 -1.59375 C 3.921875 -1.59375 4.363281 -1.710938 4.78125 -1.953125 C 5.195312 -2.191406 5.492188 -2.484375 5.671875 -2.828125 C 5.859375 -3.148438 5.957031 -3.515625 5.96875 -3.921875 C 5.988281 -4.335938 5.921875 -4.734375 5.765625 -5.109375 C 5.617188 -5.492188 5.378906 -5.796875 5.046875 -6.015625 C 4.671875 -6.285156 4.304688 -6.410156 3.953125 -6.390625 C 3.597656 -6.367188 3.21875 -6.226562 2.8125 -5.96875 C 2.6875 -5.894531 2.597656 -5.863281 2.546875 -5.875 C 2.503906 -5.894531 2.484375 -5.835938 2.484375 -5.703125 C 2.484375 -5.660156 2.488281 -5.585938 2.5 -5.484375 C 2.507812 -5.378906 2.515625 -5.203125 2.515625 -4.953125 C 2.523438 -4.710938 2.535156 -4.351562 2.546875 -3.875 C 2.566406 -3.40625 2.585938 -2.773438 2.609375 -1.984375 C 2.609375 -1.804688 2.695312 -1.695312 2.875 -1.65625 C 3.050781 -1.613281 3.242188 -1.59375 3.453125 -1.59375 Z M 3.453125 -1.59375 "/></g></g></g><g fill="#000000" fill-opacity="1"><g transform="translate(181.234804, 257.720403)"><g><path d="M 2.046875 5.78125 C 1.835938 5.78125 1.675781 5.726562 1.5625 5.625 C 1.375 5.46875 1.273438 5.285156 1.265625 5.078125 C 1.253906 4.867188 1.242188 4.660156 1.234375 4.453125 L 1.140625 1.40625 L 0.9375 -5 L 0.890625 -6.671875 C 0.878906 -6.785156 0.867188 -6.898438 0.859375 -7.015625 C 0.847656 -7.128906 0.84375 -7.25 0.84375 -7.375 C 0.84375 -7.695312 0.921875 -7.929688 1.078125 -8.078125 C 1.242188 -8.222656 1.425781 -8.296875 1.625 -8.296875 C 1.800781 -8.296875 1.96875 -8.238281 2.125 -8.125 C 2.28125 -8.007812 2.378906 -7.84375 2.421875 -7.625 C 2.660156 -7.75 2.898438 -7.835938 3.140625 -7.890625 C 3.390625 -7.953125 3.628906 -7.984375 3.859375 -7.984375 C 4.421875 -7.984375 4.925781 -7.867188 5.375 -7.640625 C 5.820312 -7.410156 6.207031 -7.101562 6.53125 -6.71875 C 6.863281 -6.332031 7.117188 -5.910156 7.296875 -5.453125 C 7.484375 -4.992188 7.578125 -4.535156 7.578125 -4.078125 C 7.578125 -3.535156 7.46875 -3.015625 7.25 -2.515625 C 7.039062 -2.023438 6.75 -1.59375 6.375 -1.21875 C 6 -0.84375 5.5625 -0.546875 5.0625 -0.328125 C 4.570312 -0.109375 4.050781 0 3.5 0 C 3.363281 0 3.222656 -0.00390625 3.078125 -0.015625 C 2.941406 -0.0351562 2.804688 -0.0546875 2.671875 -0.078125 L 2.78125 3.125 C 2.789062 3.363281 2.8125 3.644531 2.84375 3.96875 C 2.882812 4.300781 2.894531 4.613281 2.875 4.90625 C 2.851562 5.207031 2.742188 5.445312 2.546875 5.625 C 2.398438 5.726562 2.234375 5.78125 2.046875 5.78125 Z M 3.453125 -1.59375 C 3.921875 -1.59375 4.363281 -1.710938 4.78125 -1.953125 C 5.195312 -2.191406 5.492188 -2.484375 5.671875 -2.828125 C 5.859375 -3.148438 5.957031 -3.515625 5.96875 -3.921875 C 5.988281 -4.335938 5.921875 -4.734375 5.765625 -5.109375 C 5.617188 -5.492188 5.378906 -5.796875 5.046875 -6.015625 C 4.671875 -6.285156 4.304688 -6.410156 3.953125 -6.390625 C 3.597656 -6.367188 3.21875 -6.226562 2.8125 -5.96875 C 2.6875 -5.894531 2.597656 -5.863281 2.546875 -5.875 C 2.503906 -5.894531 2.484375 -5.835938 2.484375 -5.703125 C 2.484375 -5.660156 2.488281 -5.585938 2.5 -5.484375 C 2.507812 -5.378906 2.515625 -5.203125 2.515625 -4.953125 C 2.523438 -4.710938 2.535156 -4.351562 2.546875 -3.875 C 2.566406 -3.40625 2.585938 -2.773438 2.609375 -1.984375 C 2.609375 -1.804688 2.695312 -1.695312 2.875 -1.65625 C 3.050781 -1.613281 3.242188 -1.59375 3.453125 -1.59375 Z M 3.453125 -1.59375 "/></g></g></g><g fill="#000000" fill-opacity="1"><g transform="translate(192.131932, 257.720403)"><g><path d="M 3.3125 -0.03125 C 3.125 -0.03125 2.9375 -0.0546875 2.75 -0.109375 C 2.570312 -0.171875 2.425781 -0.226562 2.3125 -0.28125 C 1.78125 -0.550781 1.421875 -0.925781 1.234375 -1.40625 C 1.054688 -1.882812 0.957031 -2.351562 0.9375 -2.8125 C 0.894531 -3.601562 0.867188 -4.394531 0.859375 -5.1875 C 0.847656 -5.988281 0.84375 -6.785156 0.84375 -7.578125 L 0.84375 -10.453125 C 0.84375 -10.679688 0.851562 -10.925781 0.875 -11.1875 C 0.90625 -11.457031 0.96875 -11.6875 1.0625 -11.875 C 1.164062 -12.0625 1.320312 -12.15625 1.53125 -12.15625 C 1.925781 -12.15625 2.222656 -12.003906 2.421875 -11.703125 C 2.628906 -11.398438 2.734375 -11.0625 2.734375 -10.6875 C 2.734375 -10.414062 2.71875 -10.148438 2.6875 -9.890625 C 2.664062 -9.640625 2.65625 -9.425781 2.65625 -9.25 C 2.65625 -8.800781 2.648438 -8.347656 2.640625 -7.890625 C 2.640625 -7.441406 2.640625 -6.988281 2.640625 -6.53125 C 2.640625 -5.675781 2.648438 -4.914062 2.671875 -4.25 C 2.703125 -3.582031 2.738281 -3.0625 2.78125 -2.6875 C 2.820312 -2.3125 2.851562 -2.125 2.875 -2.125 C 2.882812 -2.125 2.894531 -2.097656 2.90625 -2.046875 C 2.925781 -2.003906 2.925781 -2.019531 2.90625 -2.09375 C 3 -1.9375 3.113281 -1.835938 3.25 -1.796875 C 3.382812 -1.753906 3.523438 -1.722656 3.671875 -1.703125 C 3.828125 -1.691406 3.960938 -1.65625 4.078125 -1.59375 C 4.203125 -1.53125 4.273438 -1.394531 4.296875 -1.1875 C 4.316406 -1.039062 4.328125 -0.9375 4.328125 -0.875 C 4.335938 -0.8125 4.34375 -0.757812 4.34375 -0.71875 C 4.34375 -0.46875 4.238281 -0.289062 4.03125 -0.1875 C 3.820312 -0.0820312 3.582031 -0.03125 3.3125 -0.03125 Z M 3.3125 -0.03125 "/></g></g></g><g fill="#000000" fill-opacity="1"><g transform="translate(199.803376, 257.720403)"><g><path d="M 2.046875 -9.265625 C 1.910156 -9.265625 1.773438 -9.296875 1.640625 -9.359375 C 1.492188 -9.453125 1.390625 -9.554688 1.328125 -9.671875 C 1.265625 -9.785156 1.234375 -9.90625 1.234375 -10.03125 C 1.234375 -10.25 1.3125 -10.453125 1.46875 -10.640625 C 1.632812 -10.828125 1.832031 -10.921875 2.0625 -10.921875 C 2.1875 -10.921875 2.316406 -10.882812 2.453125 -10.8125 C 2.597656 -10.738281 2.703125 -10.640625 2.765625 -10.515625 C 2.828125 -10.390625 2.859375 -10.265625 2.859375 -10.140625 C 2.859375 -9.921875 2.773438 -9.71875 2.609375 -9.53125 C 2.453125 -9.351562 2.265625 -9.265625 2.046875 -9.265625 Z M 1.65625 0 C 1.4375 0 1.25 -0.078125 1.09375 -0.234375 C 0.988281 -0.335938 0.921875 -0.46875 0.890625 -0.625 C 0.859375 -0.78125 0.84375 -0.941406 0.84375 -1.109375 C 0.84375 -1.273438 0.847656 -1.4375 0.859375 -1.59375 C 0.878906 -1.757812 0.890625 -1.894531 0.890625 -2 C 0.890625 -2.78125 0.890625 -3.628906 0.890625 -4.546875 C 0.898438 -5.460938 0.910156 -6.3125 0.921875 -7.09375 C 0.929688 -7.332031 1.023438 -7.523438 1.203125 -7.671875 C 1.378906 -7.828125 1.582031 -7.90625 1.8125 -7.90625 C 2.03125 -7.90625 2.21875 -7.828125 2.375 -7.671875 C 2.476562 -7.578125 2.546875 -7.453125 2.578125 -7.296875 C 2.609375 -7.140625 2.625 -6.972656 2.625 -6.796875 C 2.625 -6.628906 2.613281 -6.46875 2.59375 -6.3125 C 2.582031 -6.15625 2.578125 -6.019531 2.578125 -5.90625 C 2.566406 -5.125 2.5625 -4.273438 2.5625 -3.359375 C 2.570312 -2.441406 2.566406 -1.59375 2.546875 -0.8125 C 2.535156 -0.570312 2.4375 -0.375 2.25 -0.21875 C 2.070312 -0.0703125 1.875 0 1.65625 0 Z M 1.65625 0 "/></g></g></g><g fill="#000000" fill-opacity="1"><g transform="translate(205.987319, 257.720403)"><g><path d="M 4.25 -0.03125 C 3.550781 -0.0625 2.921875 -0.257812 2.359375 -0.625 C 1.796875 -0.988281 1.394531 -1.507812 1.15625 -2.1875 C 1.039062 -2.476562 0.957031 -2.78125 0.90625 -3.09375 C 0.863281 -3.414062 0.84375 -3.738281 0.84375 -4.0625 C 0.84375 -4.769531 0.960938 -5.472656 1.203125 -6.171875 C 1.441406 -6.878906 1.789062 -7.503906 2.25 -8.046875 C 2.71875 -8.585938 3.296875 -8.972656 3.984375 -9.203125 C 4.171875 -9.253906 4.410156 -9.28125 4.703125 -9.28125 C 4.972656 -9.28125 5.253906 -9.25 5.546875 -9.1875 C 5.847656 -9.125 6.101562 -9.019531 6.3125 -8.875 C 6.519531 -8.726562 6.625 -8.539062 6.625 -8.3125 C 6.625 -8.164062 6.570312 -8 6.46875 -7.8125 C 6.394531 -7.664062 6.304688 -7.5625 6.203125 -7.5 C 6.109375 -7.445312 6.007812 -7.421875 5.90625 -7.421875 C 5.675781 -7.421875 5.488281 -7.476562 5.34375 -7.59375 C 5.195312 -7.71875 5.03125 -7.78125 4.84375 -7.78125 C 4.644531 -7.78125 4.453125 -7.722656 4.265625 -7.609375 C 3.878906 -7.421875 3.546875 -7.128906 3.265625 -6.734375 C 2.984375 -6.347656 2.765625 -5.910156 2.609375 -5.421875 C 2.453125 -4.941406 2.375 -4.46875 2.375 -4 C 2.375 -3.132812 2.648438 -2.441406 3.203125 -1.921875 C 3.367188 -1.765625 3.609375 -1.671875 3.921875 -1.640625 C 4.242188 -1.609375 4.570312 -1.601562 4.90625 -1.625 C 5.25 -1.644531 5.523438 -1.664062 5.734375 -1.6875 C 5.984375 -1.707031 6.171875 -1.628906 6.296875 -1.453125 C 6.429688 -1.285156 6.5 -1.09375 6.5 -0.875 C 6.5 -0.664062 6.429688 -0.484375 6.296875 -0.328125 C 6.140625 -0.179688 5.921875 -0.0859375 5.640625 -0.046875 C 5.367188 -0.00390625 5.101562 0.0078125 4.84375 0 C 4.582031 -0.0078125 4.382812 -0.0195312 4.25 -0.03125 Z M 4.25 -0.03125 "/></g></g></g><g fill="#000000" fill-opacity="1"><g transform="translate(215.931775, 257.720403)"><g><path d="M 2.65625 -0.03125 C 1.9375 -0.132812 1.382812 -0.421875 1 -0.890625 C 0.613281 -1.359375 0.421875 -1.867188 0.421875 -2.421875 C 0.421875 -2.910156 0.546875 -3.390625 0.796875 -3.859375 C 1.054688 -4.328125 1.335938 -4.734375 1.640625 -5.078125 C 1.929688 -5.410156 2.242188 -5.703125 2.578125 -5.953125 C 2.921875 -6.210938 3.328125 -6.460938 3.796875 -6.703125 C 4.273438 -6.953125 4.851562 -7.234375 5.53125 -7.546875 C 5.414062 -7.929688 5.226562 -8.25 4.96875 -8.5 C 4.707031 -8.75 4.421875 -8.910156 4.109375 -8.984375 C 3.804688 -9.066406 3.519531 -9.046875 3.25 -8.921875 C 2.976562 -8.796875 2.769531 -8.539062 2.625 -8.15625 C 2.570312 -8.007812 2.46875 -7.894531 2.3125 -7.8125 C 2.164062 -7.726562 2.015625 -7.6875 1.859375 -7.6875 C 1.660156 -7.6875 1.46875 -7.757812 1.28125 -7.90625 C 1.09375 -8.050781 1 -8.25 1 -8.5 C 1 -8.71875 1.0625 -8.9375 1.1875 -9.15625 C 1.3125 -9.382812 1.457031 -9.59375 1.625 -9.78125 C 1.800781 -9.976562 1.960938 -10.128906 2.109375 -10.234375 C 2.359375 -10.421875 2.617188 -10.550781 2.890625 -10.625 C 3.171875 -10.707031 3.453125 -10.75 3.734375 -10.75 C 4.253906 -10.75 4.753906 -10.617188 5.234375 -10.359375 C 5.710938 -10.109375 6.128906 -9.765625 6.484375 -9.328125 C 6.835938 -8.898438 7.078125 -8.421875 7.203125 -7.890625 C 7.296875 -7.460938 7.347656 -7.101562 7.359375 -6.8125 C 7.367188 -6.53125 7.375 -6.273438 7.375 -6.046875 C 7.375 -5.335938 7.328125 -4.617188 7.234375 -3.890625 C 7.140625 -3.171875 7.0625 -2.445312 7 -1.71875 C 6.988281 -1.5 6.960938 -1.285156 6.921875 -1.078125 C 6.878906 -0.878906 6.742188 -0.722656 6.515625 -0.609375 C 6.367188 -0.535156 6.253906 -0.503906 6.171875 -0.515625 C 6.097656 -0.523438 5.90625 -0.554688 5.59375 -0.609375 C 5.570312 -0.585938 5.546875 -0.566406 5.515625 -0.546875 C 5.484375 -0.535156 5.453125 -0.519531 5.421875 -0.5 C 4.898438 -0.289062 4.414062 -0.148438 3.96875 -0.078125 C 3.53125 -0.00390625 3.09375 0.0078125 2.65625 -0.03125 Z M 3.1875 -1.703125 C 3.457031 -1.703125 3.722656 -1.738281 3.984375 -1.8125 C 4.242188 -1.882812 4.5 -1.972656 4.75 -2.078125 C 4.988281 -2.117188 5.125 -2.144531 5.15625 -2.15625 C 5.195312 -2.164062 5.257812 -2.160156 5.34375 -2.140625 C 5.394531 -2.742188 5.457031 -3.34375 5.53125 -3.9375 C 5.613281 -4.53125 5.660156 -5.128906 5.671875 -5.734375 C 5.253906 -5.535156 4.832031 -5.320312 4.40625 -5.09375 C 3.988281 -4.863281 3.601562 -4.59375 3.25 -4.28125 C 2.894531 -3.96875 2.601562 -3.59375 2.375 -3.15625 C 2.289062 -3.007812 2.226562 -2.859375 2.1875 -2.703125 C 2.144531 -2.546875 2.128906 -2.382812 2.140625 -2.21875 C 2.203125 -2.007812 2.3125 -1.878906 2.46875 -1.828125 C 2.632812 -1.773438 2.875 -1.734375 3.1875 -1.703125 Z M 3.1875 -1.703125 "/></g></g></g><g fill="#000000" fill-opacity="1"><g transform="translate(226.628334, 257.720403)"><g><path d="M 3.953125 -0.09375 C 3.804688 -0.0195312 3.628906 0.0078125 3.421875 0 C 3.210938 -0.0195312 3.046875 -0.101562 2.921875 -0.25 C 2.796875 -0.394531 2.71875 -0.59375 2.6875 -0.84375 C 2.664062 -1.101562 2.660156 -1.367188 2.671875 -1.640625 C 2.679688 -1.921875 2.679688 -2.140625 2.671875 -2.296875 C 2.660156 -2.515625 2.644531 -2.796875 2.625 -3.140625 C 2.613281 -3.492188 2.597656 -3.863281 2.578125 -4.25 C 2.566406 -4.644531 2.554688 -5.019531 2.546875 -5.375 C 2.535156 -5.726562 2.53125 -6.015625 2.53125 -6.234375 C 2.394531 -6.222656 2.234375 -6.207031 2.046875 -6.1875 C 1.867188 -6.164062 1.6875 -6.15625 1.5 -6.15625 C 1.226562 -6.15625 0.976562 -6.207031 0.75 -6.3125 C 0.53125 -6.414062 0.421875 -6.625 0.421875 -6.9375 C 0.421875 -7.175781 0.484375 -7.367188 0.609375 -7.515625 C 0.742188 -7.671875 0.921875 -7.765625 1.140625 -7.796875 L 2.3125 -7.890625 C 2.507812 -7.910156 2.601562 -8 2.59375 -8.15625 C 2.59375 -8.320312 2.597656 -8.488281 2.609375 -8.65625 C 2.628906 -8.8125 2.648438 -9.023438 2.671875 -9.296875 C 2.691406 -9.578125 2.734375 -9.859375 2.796875 -10.140625 C 2.867188 -10.421875 2.972656 -10.660156 3.109375 -10.859375 C 3.242188 -11.054688 3.421875 -11.15625 3.640625 -11.15625 C 3.859375 -11.15625 4.070312 -11.054688 4.28125 -10.859375 C 4.5 -10.671875 4.59375 -10.425781 4.5625 -10.125 C 4.519531 -9.78125 4.453125 -9.4375 4.359375 -9.09375 C 4.273438 -8.757812 4.21875 -8.414062 4.1875 -8.0625 L 4.96875 -8.140625 C 5.226562 -8.160156 5.441406 -8.070312 5.609375 -7.875 C 5.785156 -7.675781 5.875 -7.457031 5.875 -7.21875 C 5.875 -7.082031 5.835938 -6.953125 5.765625 -6.828125 C 5.691406 -6.703125 5.578125 -6.601562 5.421875 -6.53125 C 5.273438 -6.476562 5.109375 -6.445312 4.921875 -6.4375 C 4.734375 -6.4375 4.554688 -6.429688 4.390625 -6.421875 C 4.285156 -6.410156 4.210938 -6.382812 4.171875 -6.34375 C 4.140625 -6.3125 4.125 -6.269531 4.125 -6.21875 C 4.125 -6.15625 4.125 -6.097656 4.125 -6.046875 C 4.132812 -6.003906 4.144531 -5.921875 4.15625 -5.796875 C 4.175781 -5.679688 4.1875 -5.488281 4.1875 -5.21875 C 4.195312 -4.945312 4.203125 -4.554688 4.203125 -4.046875 C 4.203125 -3.753906 4.21875 -3.398438 4.25 -2.984375 C 4.289062 -2.578125 4.328125 -2.191406 4.359375 -1.828125 C 4.390625 -1.460938 4.40625 -1.195312 4.40625 -1.03125 C 4.40625 -0.84375 4.378906 -0.664062 4.328125 -0.5 C 4.273438 -0.34375 4.148438 -0.207031 3.953125 -0.09375 Z M 3.953125 -0.09375 "/></g></g></g><g fill="#000000" fill-opacity="1"><g transform="translate(235.820688, 257.720403)"><g><path d="M 2.046875 -9.265625 C 1.910156 -9.265625 1.773438 -9.296875 1.640625 -9.359375 C 1.492188 -9.453125 1.390625 -9.554688 1.328125 -9.671875 C 1.265625 -9.785156 1.234375 -9.90625 1.234375 -10.03125 C 1.234375 -10.25 1.3125 -10.453125 1.46875 -10.640625 C 1.632812 -10.828125 1.832031 -10.921875 2.0625 -10.921875 C 2.1875 -10.921875 2.316406 -10.882812 2.453125 -10.8125 C 2.597656 -10.738281 2.703125 -10.640625 2.765625 -10.515625 C 2.828125 -10.390625 2.859375 -10.265625 2.859375 -10.140625 C 2.859375 -9.921875 2.773438 -9.71875 2.609375 -9.53125 C 2.453125 -9.351562 2.265625 -9.265625 2.046875 -9.265625 Z M 1.65625 0 C 1.4375 0 1.25 -0.078125 1.09375 -0.234375 C 0.988281 -0.335938 0.921875 -0.46875 0.890625 -0.625 C 0.859375 -0.78125 0.84375 -0.941406 0.84375 -1.109375 C 0.84375 -1.273438 0.847656 -1.4375 0.859375 -1.59375 C 0.878906 -1.757812 0.890625 -1.894531 0.890625 -2 C 0.890625 -2.78125 0.890625 -3.628906 0.890625 -4.546875 C 0.898438 -5.460938 0.910156 -6.3125 0.921875 -7.09375 C 0.929688 -7.332031 1.023438 -7.523438 1.203125 -7.671875 C 1.378906 -7.828125 1.582031 -7.90625 1.8125 -7.90625 C 2.03125 -7.90625 2.21875 -7.828125 2.375 -7.671875 C 2.476562 -7.578125 2.546875 -7.453125 2.578125 -7.296875 C 2.609375 -7.140625 2.625 -6.972656 2.625 -6.796875 C 2.625 -6.628906 2.613281 -6.46875 2.59375 -6.3125 C 2.582031 -6.15625 2.578125 -6.019531 2.578125 -5.90625 C 2.566406 -5.125 2.5625 -4.273438 2.5625 -3.359375 C 2.570312 -2.441406 2.566406 -1.59375 2.546875 -0.8125 C 2.535156 -0.570312 2.4375 -0.375 2.25 -0.21875 C 2.070312 -0.0703125 1.875 0 1.65625 0 Z M 1.65625 0 "/></g></g></g><g fill="#000000" fill-opacity="1"><g transform="translate(242.004631, 257.720403)"><g><path d="M 3.53125 0 C 3.050781 0 2.585938 -0.09375 2.140625 -0.28125 C 1.703125 -0.476562 1.316406 -0.757812 0.984375 -1.125 C 0.660156 -1.488281 0.429688 -1.921875 0.296875 -2.421875 C 0.210938 -2.773438 0.171875 -3.140625 0.171875 -3.515625 C 0.171875 -4.066406 0.257812 -4.625 0.4375 -5.1875 C 0.613281 -5.75 0.875 -6.253906 1.21875 -6.703125 C 1.5625 -7.160156 1.976562 -7.503906 2.46875 -7.734375 C 2.71875 -7.859375 2.96875 -7.945312 3.21875 -8 C 3.46875 -8.050781 3.722656 -8.078125 3.984375 -8.078125 C 4.265625 -8.078125 4.546875 -8.046875 4.828125 -7.984375 C 5.117188 -7.921875 5.398438 -7.832031 5.671875 -7.71875 C 5.890625 -7.632812 6.097656 -7.523438 6.296875 -7.390625 C 6.492188 -7.253906 6.660156 -7.09375 6.796875 -6.90625 C 6.867188 -6.820312 6.941406 -6.691406 7.015625 -6.515625 C 7.097656 -6.335938 7.171875 -6.164062 7.234375 -6 C 7.296875 -5.84375 7.328125 -5.75 7.328125 -5.71875 C 7.410156 -5.34375 7.453125 -4.976562 7.453125 -4.625 C 7.453125 -4.0625 7.351562 -3.492188 7.15625 -2.921875 C 6.96875 -2.359375 6.691406 -1.847656 6.328125 -1.390625 C 5.960938 -0.929688 5.519531 -0.578125 5 -0.328125 C 4.757812 -0.222656 4.515625 -0.140625 4.265625 -0.078125 C 4.023438 -0.0234375 3.78125 0 3.53125 0 Z M 3.765625 -1.703125 C 4.148438 -1.785156 4.476562 -1.957031 4.75 -2.21875 C 5.03125 -2.476562 5.25 -2.785156 5.40625 -3.140625 C 5.570312 -3.503906 5.679688 -3.867188 5.734375 -4.234375 C 5.753906 -4.378906 5.769531 -4.550781 5.78125 -4.75 C 5.789062 -4.957031 5.765625 -5.082031 5.703125 -5.125 C 5.617188 -5.207031 5.550781 -5.300781 5.5 -5.40625 C 5.457031 -5.507812 5.441406 -5.617188 5.453125 -5.734375 C 5.472656 -5.878906 5.398438 -5.992188 5.234375 -6.078125 C 5.078125 -6.160156 4.898438 -6.222656 4.703125 -6.265625 C 4.503906 -6.316406 4.359375 -6.347656 4.265625 -6.359375 C 4.222656 -6.359375 4.179688 -6.359375 4.140625 -6.359375 C 4.109375 -6.367188 4.070312 -6.375 4.03125 -6.375 C 3.632812 -6.375 3.300781 -6.273438 3.03125 -6.078125 C 2.757812 -5.878906 2.535156 -5.625 2.359375 -5.3125 C 2.191406 -5 2.0625 -4.660156 1.96875 -4.296875 C 1.945312 -4.179688 1.925781 -4.066406 1.90625 -3.953125 C 1.894531 -3.835938 1.890625 -3.71875 1.890625 -3.59375 C 1.890625 -3.238281 1.957031 -2.910156 2.09375 -2.609375 C 2.226562 -2.304688 2.429688 -2.070312 2.703125 -1.90625 C 2.984375 -1.738281 3.335938 -1.671875 3.765625 -1.703125 Z M 3.765625 -1.703125 "/></g></g></g><g fill="#000000" fill-opacity="1"><g transform="translate(252.784758, 257.720403)"><g><path d="M 2.421875 0.203125 C 2.128906 0.203125 1.925781 0.101562 1.8125 -0.09375 C 1.695312 -0.300781 1.628906 -0.53125 1.609375 -0.78125 C 1.585938 -1.039062 1.5625 -1.257812 1.53125 -1.4375 C 1.476562 -2.039062 1.421875 -2.59375 1.359375 -3.09375 C 1.296875 -3.59375 1.226562 -4.09375 1.15625 -4.59375 C 1.09375 -5.101562 1.023438 -5.65625 0.953125 -6.25 C 0.941406 -6.40625 0.910156 -6.59375 0.859375 -6.8125 C 0.804688 -7.03125 0.78125 -7.242188 0.78125 -7.453125 C 0.78125 -8.097656 1.082031 -8.421875 1.6875 -8.421875 C 1.925781 -8.421875 2.097656 -8.335938 2.203125 -8.171875 C 2.316406 -8.015625 2.394531 -7.820312 2.4375 -7.59375 C 2.488281 -7.375 2.523438 -7.171875 2.546875 -6.984375 C 2.972656 -7.296875 3.425781 -7.5625 3.90625 -7.78125 C 4.382812 -8 4.890625 -8.109375 5.421875 -8.109375 C 5.816406 -8.109375 6.210938 -8.03125 6.609375 -7.875 C 7.015625 -7.726562 7.367188 -7.503906 7.671875 -7.203125 C 7.972656 -6.898438 8.175781 -6.515625 8.28125 -6.046875 C 8.332031 -5.835938 8.363281 -5.625 8.375 -5.40625 C 8.382812 -5.1875 8.390625 -4.96875 8.390625 -4.75 C 8.398438 -3.90625 8.40625 -3.242188 8.40625 -2.765625 C 8.414062 -2.296875 8.421875 -1.941406 8.421875 -1.703125 C 8.421875 -1.460938 8.410156 -1.28125 8.390625 -1.15625 C 8.378906 -1.039062 8.359375 -0.914062 8.328125 -0.78125 C 8.285156 -0.601562 8.1875 -0.457031 8.03125 -0.34375 C 7.882812 -0.226562 7.707031 -0.171875 7.5 -0.171875 C 7.15625 -0.171875 6.90625 -0.328125 6.75 -0.640625 C 6.6875 -0.753906 6.65625 -0.929688 6.65625 -1.171875 C 6.65625 -1.484375 6.65625 -1.738281 6.65625 -1.9375 C 6.664062 -2.144531 6.671875 -2.351562 6.671875 -2.5625 C 6.679688 -2.78125 6.6875 -3.039062 6.6875 -3.34375 C 6.6875 -3.550781 6.691406 -3.765625 6.703125 -3.984375 C 6.722656 -4.210938 6.734375 -4.445312 6.734375 -4.6875 C 6.734375 -5.050781 6.691406 -5.351562 6.609375 -5.59375 C 6.535156 -5.84375 6.4375 -6.035156 6.3125 -6.171875 C 6.195312 -6.222656 6.019531 -6.289062 5.78125 -6.375 C 5.539062 -6.46875 5.359375 -6.488281 5.234375 -6.4375 C 4.992188 -6.382812 4.734375 -6.296875 4.453125 -6.171875 C 4.171875 -6.046875 3.898438 -5.90625 3.640625 -5.75 C 3.390625 -5.59375 3.1875 -5.4375 3.03125 -5.28125 C 2.875 -5.125 2.800781 -4.976562 2.8125 -4.84375 C 2.9375 -3.675781 3.039062 -2.773438 3.125 -2.140625 C 3.21875 -1.503906 3.265625 -1.054688 3.265625 -0.796875 C 3.265625 -0.128906 2.984375 0.203125 2.421875 0.203125 Z M 2.421875 0.203125 "/></g></g></g></svg>